<mxfile host="app.diagrams.net" modified="2021-02-21T14:54:30.567Z" agent="5.0 (Macintosh; Intel Mac OS X 11_1_0) AppleWebKit/537.36 (KHTML, like Gecko) Chrome/88.0.4324.150 Safari/537.36" etag="SSoxr-Y20zcQ9xbJ8BV4" version="14.2.7" type="github" pages="11">
  <diagram name="BASE" id="03018318-947c-dd8e-b7a3-06fadd420f32">
    <mxGraphModel dx="2190" dy="1423" grid="1" gridSize="10" guides="1" tooltips="1" connect="1" arrows="1" fold="1" page="1" pageScale="1" pageWidth="1100" pageHeight="850" background="#ffffff" math="0" shadow="0">
      <root>
        <mxCell id="0" />
        <mxCell id="1" parent="0" />
        <mxCell id="StNwW1z39jA7dDpaFlxl-5" value="" style="rounded=1;whiteSpace=wrap;html=1;fontSize=30;" vertex="1" parent="1">
          <mxGeometry x="655" y="330" width="890" height="1850" as="geometry" />
        </mxCell>
        <mxCell id="StNwW1z39jA7dDpaFlxl-2" value="" style="rounded=1;whiteSpace=wrap;html=1;" vertex="1" parent="1">
          <mxGeometry x="685" y="360" width="828" height="1792" as="geometry" />
        </mxCell>
        <mxCell id="StNwW1z39jA7dDpaFlxl-4" value="iPhone11&amp;nbsp;&amp;nbsp;&lt;span style=&quot;color: rgb(29, 29, 31); text-align: left; background-color: rgb(255, 255, 255); font-size: 30px;&quot;&gt;&lt;font style=&quot;font-size: 30px;&quot;&gt;1,792 x 828ピクセル&lt;/font&gt;&lt;/span&gt;" style="text;html=1;strokeColor=none;fillColor=none;align=center;verticalAlign=middle;whiteSpace=wrap;rounded=0;fontSize=30;" vertex="1" parent="1">
          <mxGeometry x="1520" y="240" width="300" height="160" as="geometry" />
        </mxCell>
        <mxCell id="StNwW1z39jA7dDpaFlxl-6" value="" style="rounded=1;whiteSpace=wrap;html=1;fontSize=30;" vertex="1" parent="1">
          <mxGeometry x="905" y="360" width="400" height="60" as="geometry" />
        </mxCell>
        <mxCell id="StNwW1z39jA7dDpaFlxl-7" value="" style="ellipse;whiteSpace=wrap;html=1;aspect=fixed;fontSize=30;" vertex="1" parent="1">
          <mxGeometry x="1175" y="375" width="30" height="30" as="geometry" />
        </mxCell>
        <mxCell id="StNwW1z39jA7dDpaFlxl-8" value="" style="rounded=1;whiteSpace=wrap;html=1;fontSize=30;" vertex="1" parent="1">
          <mxGeometry x="1005" y="380" width="130" height="20" as="geometry" />
        </mxCell>
      </root>
    </mxGraphModel>
  </diagram>
  <diagram name="No.1 スプラッシュ" id="DOLNIBzLoMoy7DRXERgs">
    <mxGraphModel dx="4380" dy="2845" grid="1" gridSize="10" guides="1" tooltips="1" connect="1" arrows="1" fold="1" page="1" pageScale="1" pageWidth="1100" pageHeight="850" background="#ffffff" math="0" shadow="0">
      <root>
        <mxCell id="Nwl3lTo2dYURQwN4T1mz-0" />
        <mxCell id="Nwl3lTo2dYURQwN4T1mz-1" parent="Nwl3lTo2dYURQwN4T1mz-0" />
        <mxCell id="Nwl3lTo2dYURQwN4T1mz-2" value="" style="rounded=1;whiteSpace=wrap;html=1;fontSize=30;" vertex="1" parent="Nwl3lTo2dYURQwN4T1mz-1">
          <mxGeometry x="655" y="330" width="890" height="1850" as="geometry" />
        </mxCell>
        <mxCell id="Nwl3lTo2dYURQwN4T1mz-3" value="" style="rounded=1;whiteSpace=wrap;html=1;" vertex="1" parent="Nwl3lTo2dYURQwN4T1mz-1">
          <mxGeometry x="685" y="360" width="828" height="1792" as="geometry" />
        </mxCell>
        <mxCell id="Nwl3lTo2dYURQwN4T1mz-5" value="" style="rounded=1;whiteSpace=wrap;html=1;fontSize=30;" vertex="1" parent="Nwl3lTo2dYURQwN4T1mz-1">
          <mxGeometry x="905" y="360" width="400" height="60" as="geometry" />
        </mxCell>
        <mxCell id="Nwl3lTo2dYURQwN4T1mz-6" value="" style="ellipse;whiteSpace=wrap;html=1;aspect=fixed;fontSize=30;" vertex="1" parent="Nwl3lTo2dYURQwN4T1mz-1">
          <mxGeometry x="1175" y="375" width="30" height="30" as="geometry" />
        </mxCell>
        <mxCell id="Nwl3lTo2dYURQwN4T1mz-7" value="" style="rounded=1;whiteSpace=wrap;html=1;fontSize=30;" vertex="1" parent="Nwl3lTo2dYURQwN4T1mz-1">
          <mxGeometry x="1005" y="380" width="130" height="20" as="geometry" />
        </mxCell>
        <mxCell id="cqvY6-Cf0kUl4-XFfod3-0" value="" style="group" vertex="1" connectable="0" parent="Nwl3lTo2dYURQwN4T1mz-1">
          <mxGeometry x="955" y="970" width="290" height="290" as="geometry" />
        </mxCell>
        <mxCell id="Nwl3lTo2dYURQwN4T1mz-8" value="" style="whiteSpace=wrap;html=1;aspect=fixed;fontSize=30;" vertex="1" parent="cqvY6-Cf0kUl4-XFfod3-0">
          <mxGeometry width="290" height="290" as="geometry" />
        </mxCell>
        <mxCell id="MiQcJ9i5IGsGLRRU6NoN-0" value="&lt;font style=&quot;font-size: 40px&quot;&gt;アプリロゴ&lt;/font&gt;" style="text;html=1;strokeColor=none;fillColor=none;align=center;verticalAlign=middle;whiteSpace=wrap;rounded=0;fontSize=30;" vertex="1" parent="cqvY6-Cf0kUl4-XFfod3-0">
          <mxGeometry x="24" y="135" width="240" height="20" as="geometry" />
        </mxCell>
      </root>
    </mxGraphModel>
  </diagram>
  <diagram name="No.2 ログイン" id="_AfbxHFaF5lYF6JiL1YY">
    <mxGraphModel dx="2920" dy="1897" grid="1" gridSize="10" guides="1" tooltips="1" connect="1" arrows="1" fold="1" page="1" pageScale="1" pageWidth="1100" pageHeight="850" background="#ffffff" math="0" shadow="0">
      <root>
        <mxCell id="PPinF6ZJo_eMLOw9XGvA-0" />
        <mxCell id="PPinF6ZJo_eMLOw9XGvA-1" parent="PPinF6ZJo_eMLOw9XGvA-0" />
        <mxCell id="PPinF6ZJo_eMLOw9XGvA-2" value="" style="rounded=1;whiteSpace=wrap;html=1;fontSize=30;" vertex="1" parent="PPinF6ZJo_eMLOw9XGvA-1">
          <mxGeometry x="655" y="330" width="890" height="1850" as="geometry" />
        </mxCell>
        <mxCell id="PPinF6ZJo_eMLOw9XGvA-3" value="" style="rounded=1;whiteSpace=wrap;html=1;" vertex="1" parent="PPinF6ZJo_eMLOw9XGvA-1">
          <mxGeometry x="685" y="360" width="828" height="1792" as="geometry" />
        </mxCell>
        <mxCell id="PPinF6ZJo_eMLOw9XGvA-5" value="" style="rounded=1;whiteSpace=wrap;html=1;fontSize=30;" vertex="1" parent="PPinF6ZJo_eMLOw9XGvA-1">
          <mxGeometry x="905" y="360" width="400" height="60" as="geometry" />
        </mxCell>
        <mxCell id="PPinF6ZJo_eMLOw9XGvA-6" value="" style="ellipse;whiteSpace=wrap;html=1;aspect=fixed;fontSize=30;" vertex="1" parent="PPinF6ZJo_eMLOw9XGvA-1">
          <mxGeometry x="1175" y="375" width="30" height="30" as="geometry" />
        </mxCell>
        <mxCell id="PPinF6ZJo_eMLOw9XGvA-7" value="" style="rounded=1;whiteSpace=wrap;html=1;fontSize=30;" vertex="1" parent="PPinF6ZJo_eMLOw9XGvA-1">
          <mxGeometry x="1005" y="380" width="130" height="20" as="geometry" />
        </mxCell>
        <mxCell id="BivzD6Mio9rfSsBPtRb6-6" value="" style="line;strokeWidth=2;html=1;fontSize=30;" vertex="1" parent="PPinF6ZJo_eMLOw9XGvA-1">
          <mxGeometry x="809" y="1320" width="580" height="10" as="geometry" />
        </mxCell>
        <mxCell id="BivzD6Mio9rfSsBPtRb6-7" value="&lt;font style=&quot;font-size: 35px&quot;&gt;ID&lt;/font&gt;" style="text;html=1;strokeColor=none;fillColor=none;align=left;verticalAlign=middle;whiteSpace=wrap;rounded=0;fontSize=30;" vertex="1" parent="PPinF6ZJo_eMLOw9XGvA-1">
          <mxGeometry x="809" y="1290" width="210" height="20" as="geometry" />
        </mxCell>
        <mxCell id="BivzD6Mio9rfSsBPtRb6-13" value="&lt;font style=&quot;font-size: 35px&quot;&gt;ログイン&lt;/font&gt;" style="rounded=1;whiteSpace=wrap;html=1;fontSize=30;" vertex="1" parent="PPinF6ZJo_eMLOw9XGvA-1">
          <mxGeometry x="820" y="1530" width="550" height="80" as="geometry" />
        </mxCell>
        <mxCell id="ReGmGPX2pNPjTokqwsJE-0" value="ログイン" style="text;html=1;strokeColor=none;fillColor=none;align=left;verticalAlign=middle;whiteSpace=wrap;rounded=0;fontSize=60;" vertex="1" parent="PPinF6ZJo_eMLOw9XGvA-1">
          <mxGeometry x="745" y="480" width="430" height="20" as="geometry" />
        </mxCell>
        <mxCell id="ReGmGPX2pNPjTokqwsJE-2" value="" style="line;strokeWidth=2;html=1;fontSize=30;" vertex="1" parent="PPinF6ZJo_eMLOw9XGvA-1">
          <mxGeometry x="809" y="1450" width="580" height="10" as="geometry" />
        </mxCell>
        <mxCell id="ReGmGPX2pNPjTokqwsJE-3" value="PASSWORD" style="text;html=1;strokeColor=none;fillColor=none;align=left;verticalAlign=middle;whiteSpace=wrap;rounded=0;fontSize=30;" vertex="1" parent="PPinF6ZJo_eMLOw9XGvA-1">
          <mxGeometry x="809" y="1420" width="210" height="20" as="geometry" />
        </mxCell>
        <mxCell id="ReGmGPX2pNPjTokqwsJE-4" value="" style="html=1;verticalLabelPosition=bottom;labelBackgroundColor=#ffffff;verticalAlign=top;shadow=0;dashed=0;strokeWidth=2;shape=mxgraph.ios7.misc.keyboard_(letters);fontSize=60;" vertex="1" parent="PPinF6ZJo_eMLOw9XGvA-1">
          <mxGeometry x="710" y="1670" width="790" height="440" as="geometry" />
        </mxCell>
        <mxCell id="8jTQKzY3Qy2Nxk8F8kFp-0" value="" style="group" vertex="1" connectable="0" parent="PPinF6ZJo_eMLOw9XGvA-1">
          <mxGeometry x="950" y="660" width="290" height="290" as="geometry" />
        </mxCell>
        <mxCell id="8jTQKzY3Qy2Nxk8F8kFp-1" value="" style="whiteSpace=wrap;html=1;aspect=fixed;fontSize=30;" vertex="1" parent="8jTQKzY3Qy2Nxk8F8kFp-0">
          <mxGeometry width="290" height="290" as="geometry" />
        </mxCell>
        <mxCell id="8jTQKzY3Qy2Nxk8F8kFp-2" value="&lt;font style=&quot;font-size: 40px&quot;&gt;アプリロゴ&lt;/font&gt;" style="text;html=1;strokeColor=none;fillColor=none;align=center;verticalAlign=middle;whiteSpace=wrap;rounded=0;fontSize=30;" vertex="1" parent="8jTQKzY3Qy2Nxk8F8kFp-0">
          <mxGeometry x="24" y="135" width="240" height="20" as="geometry" />
        </mxCell>
        <mxCell id="XS7HRxvMIzi-haa0oyt7-0" value="" style="verticalLabelPosition=bottom;shadow=0;dashed=0;align=center;html=1;verticalAlign=top;strokeWidth=1;shape=mxgraph.mockup.forms.splitter;strokeColor=#999999;fontSize=35;fontColor=#000000;" vertex="1" parent="PPinF6ZJo_eMLOw9XGvA-1">
          <mxGeometry x="735" y="1220" width="730" height="30" as="geometry" />
        </mxCell>
        <mxCell id="XS7HRxvMIzi-haa0oyt7-1" value="&lt;font style=&quot;font-size: 35px&quot;&gt;新規登録&lt;/font&gt;" style="rounded=1;whiteSpace=wrap;html=1;fontSize=30;" vertex="1" parent="PPinF6ZJo_eMLOw9XGvA-1">
          <mxGeometry x="820" y="1090" width="550" height="80" as="geometry" />
        </mxCell>
      </root>
    </mxGraphModel>
  </diagram>
  <diagram name="No.3 新規登録" id="RUMp8Hz8xVI4NB7hEuAo">
    <mxGraphModel dx="2920" dy="1897" grid="1" gridSize="10" guides="1" tooltips="1" connect="1" arrows="1" fold="1" page="1" pageScale="1" pageWidth="1100" pageHeight="850" background="#ffffff" math="0" shadow="0">
      <root>
        <mxCell id="SDJmwYZy9q2M_5WtrtMW-0" />
        <mxCell id="SDJmwYZy9q2M_5WtrtMW-1" parent="SDJmwYZy9q2M_5WtrtMW-0" />
        <mxCell id="SDJmwYZy9q2M_5WtrtMW-2" value="" style="rounded=1;whiteSpace=wrap;html=1;fontSize=30;" vertex="1" parent="SDJmwYZy9q2M_5WtrtMW-1">
          <mxGeometry x="655" y="330" width="890" height="1850" as="geometry" />
        </mxCell>
        <mxCell id="SDJmwYZy9q2M_5WtrtMW-3" value="" style="rounded=1;whiteSpace=wrap;html=1;" vertex="1" parent="SDJmwYZy9q2M_5WtrtMW-1">
          <mxGeometry x="685" y="360" width="828" height="1792" as="geometry" />
        </mxCell>
        <mxCell id="SDJmwYZy9q2M_5WtrtMW-4" value="" style="rounded=1;whiteSpace=wrap;html=1;fontSize=30;" vertex="1" parent="SDJmwYZy9q2M_5WtrtMW-1">
          <mxGeometry x="905" y="360" width="400" height="60" as="geometry" />
        </mxCell>
        <mxCell id="SDJmwYZy9q2M_5WtrtMW-5" value="" style="ellipse;whiteSpace=wrap;html=1;aspect=fixed;fontSize=30;" vertex="1" parent="SDJmwYZy9q2M_5WtrtMW-1">
          <mxGeometry x="1175" y="375" width="30" height="30" as="geometry" />
        </mxCell>
        <mxCell id="SDJmwYZy9q2M_5WtrtMW-6" value="" style="rounded=1;whiteSpace=wrap;html=1;fontSize=30;" vertex="1" parent="SDJmwYZy9q2M_5WtrtMW-1">
          <mxGeometry x="1005" y="380" width="130" height="20" as="geometry" />
        </mxCell>
        <mxCell id="SDJmwYZy9q2M_5WtrtMW-7" value="" style="line;strokeWidth=2;html=1;fontSize=30;" vertex="1" parent="SDJmwYZy9q2M_5WtrtMW-1">
          <mxGeometry x="810" y="710" width="580" height="10" as="geometry" />
        </mxCell>
        <mxCell id="SDJmwYZy9q2M_5WtrtMW-8" value="&lt;font style=&quot;font-size: 35px&quot;&gt;ID&lt;/font&gt;" style="text;html=1;strokeColor=none;fillColor=none;align=left;verticalAlign=middle;whiteSpace=wrap;rounded=0;fontSize=30;" vertex="1" parent="SDJmwYZy9q2M_5WtrtMW-1">
          <mxGeometry x="810" y="680" width="210" height="20" as="geometry" />
        </mxCell>
        <mxCell id="SDJmwYZy9q2M_5WtrtMW-9" value="" style="line;strokeWidth=2;html=1;fontSize=30;" vertex="1" parent="SDJmwYZy9q2M_5WtrtMW-1">
          <mxGeometry x="809" y="1050" width="580" height="10" as="geometry" />
        </mxCell>
        <mxCell id="SDJmwYZy9q2M_5WtrtMW-10" value="MAIL" style="text;html=1;strokeColor=none;fillColor=none;align=left;verticalAlign=middle;whiteSpace=wrap;rounded=0;fontSize=30;" vertex="1" parent="SDJmwYZy9q2M_5WtrtMW-1">
          <mxGeometry x="809" y="1020" width="210" height="20" as="geometry" />
        </mxCell>
        <mxCell id="SDJmwYZy9q2M_5WtrtMW-11" value="&lt;font style=&quot;font-size: 35px&quot;&gt;登録&lt;/font&gt;" style="rounded=1;whiteSpace=wrap;html=1;fontSize=30;" vertex="1" parent="SDJmwYZy9q2M_5WtrtMW-1">
          <mxGeometry x="824" y="1410" width="550" height="80" as="geometry" />
        </mxCell>
        <mxCell id="SDJmwYZy9q2M_5WtrtMW-12" value="アカウント登録" style="text;html=1;strokeColor=none;fillColor=none;align=center;verticalAlign=middle;whiteSpace=wrap;rounded=0;fontSize=60;" vertex="1" parent="SDJmwYZy9q2M_5WtrtMW-1">
          <mxGeometry x="745" y="480" width="430" height="20" as="geometry" />
        </mxCell>
        <mxCell id="SDJmwYZy9q2M_5WtrtMW-13" value="" style="line;strokeWidth=2;html=1;fontSize=30;" vertex="1" parent="SDJmwYZy9q2M_5WtrtMW-1">
          <mxGeometry x="809" y="1220" width="580" height="10" as="geometry" />
        </mxCell>
        <mxCell id="SDJmwYZy9q2M_5WtrtMW-14" value="PASSWORD" style="text;html=1;strokeColor=none;fillColor=none;align=left;verticalAlign=middle;whiteSpace=wrap;rounded=0;fontSize=30;" vertex="1" parent="SDJmwYZy9q2M_5WtrtMW-1">
          <mxGeometry x="809" y="1190" width="210" height="20" as="geometry" />
        </mxCell>
        <mxCell id="SDJmwYZy9q2M_5WtrtMW-15" value="" style="html=1;verticalLabelPosition=bottom;labelBackgroundColor=#ffffff;verticalAlign=top;shadow=0;dashed=0;strokeWidth=2;shape=mxgraph.ios7.misc.keyboard_(letters);fontSize=60;" vertex="1" parent="SDJmwYZy9q2M_5WtrtMW-1">
          <mxGeometry x="710" y="1670" width="790" height="440" as="geometry" />
        </mxCell>
        <mxCell id="SDJmwYZy9q2M_5WtrtMW-16" value="" style="html=1;strokeWidth=1;shadow=0;dashed=0;shape=mxgraph.ios7ui.rrect;rSize=3;strokeColor=#0080F0;gradientColor=none;fontSize=60;container=0;" vertex="1" parent="SDJmwYZy9q2M_5WtrtMW-1">
          <mxGeometry x="990" y="840" width="350" height="50" as="geometry" />
        </mxCell>
        <mxCell id="SDJmwYZy9q2M_5WtrtMW-17" value="" style="group" vertex="1" connectable="0" parent="SDJmwYZy9q2M_5WtrtMW-1">
          <mxGeometry x="990" y="840" width="352.5" height="50" as="geometry" />
        </mxCell>
        <mxCell id="SDJmwYZy9q2M_5WtrtMW-18" value="男性" style="strokeColor=inherit;fillColor=inherit;gradientColor=inherit;html=1;strokeWidth=1;shadow=0;dashed=0;shape=mxgraph.ios7ui.leftButton;rSize=3;fontSize=19;" vertex="1" parent="SDJmwYZy9q2M_5WtrtMW-17">
          <mxGeometry width="117.5" height="50" as="geometry" />
        </mxCell>
        <mxCell id="SDJmwYZy9q2M_5WtrtMW-19" value="その他" style="strokeColor=inherit;fillColor=inherit;gradientColor=inherit;html=1;strokeWidth=1;shadow=0;dashed=0;shape=mxgraph.ios7ui.rightButton;rSize=3;fontSize=19;" vertex="1" parent="SDJmwYZy9q2M_5WtrtMW-17">
          <mxGeometry x="235" width="117.5" height="50" as="geometry" />
        </mxCell>
        <mxCell id="SDJmwYZy9q2M_5WtrtMW-20" value="女性" style="html=1;strokeWidth=1;shadow=0;dashed=0;shape=mxgraph.ios7ui.rrect;rSize=0;strokeColor=#0080F0;fillColor=#0080F0;fontColor=#ffffff;fontSize=19;" vertex="1" parent="SDJmwYZy9q2M_5WtrtMW-17">
          <mxGeometry x="117.5" width="117.5" height="50" as="geometry" />
        </mxCell>
        <mxCell id="SDJmwYZy9q2M_5WtrtMW-21" value="SEX" style="text;html=1;strokeColor=none;fillColor=none;align=left;verticalAlign=middle;whiteSpace=wrap;rounded=0;fontSize=30;" vertex="1" parent="SDJmwYZy9q2M_5WtrtMW-1">
          <mxGeometry x="809" y="850" width="210" height="20" as="geometry" />
        </mxCell>
        <mxCell id="IpxOXWFe0KeW97TI7OU6-0" value="メモ）&lt;br&gt;この画面で利用許諾も取得する？？" style="text;html=1;strokeColor=none;fillColor=none;align=left;verticalAlign=middle;whiteSpace=wrap;rounded=0;fontSize=35;fontColor=#000000;" vertex="1" parent="SDJmwYZy9q2M_5WtrtMW-1">
          <mxGeometry x="1610" y="760" width="490" height="230" as="geometry" />
        </mxCell>
      </root>
    </mxGraphModel>
  </diagram>
  <diagram name="No.4 ホーム" id="3mYt3j__9oq3aIY87XOF">
    <mxGraphModel dx="2503" dy="1626" grid="1" gridSize="10" guides="1" tooltips="1" connect="1" arrows="1" fold="1" page="1" pageScale="1" pageWidth="1100" pageHeight="850" background="#ffffff" math="0" shadow="0">
      <root>
        <mxCell id="v_rGobsMjEYAZ9qF_yhi-0" />
        <mxCell id="v_rGobsMjEYAZ9qF_yhi-1" parent="v_rGobsMjEYAZ9qF_yhi-0" />
        <mxCell id="v_rGobsMjEYAZ9qF_yhi-2" value="" style="rounded=1;whiteSpace=wrap;html=1;fontSize=30;" vertex="1" parent="v_rGobsMjEYAZ9qF_yhi-1">
          <mxGeometry x="655" y="330" width="890" height="1850" as="geometry" />
        </mxCell>
        <mxCell id="v_rGobsMjEYAZ9qF_yhi-3" value="" style="rounded=1;whiteSpace=wrap;html=1;" vertex="1" parent="v_rGobsMjEYAZ9qF_yhi-1">
          <mxGeometry x="685" y="360" width="828" height="1792" as="geometry" />
        </mxCell>
        <mxCell id="v_rGobsMjEYAZ9qF_yhi-5" value="" style="rounded=1;whiteSpace=wrap;html=1;fontSize=30;" vertex="1" parent="v_rGobsMjEYAZ9qF_yhi-1">
          <mxGeometry x="905" y="360" width="400" height="60" as="geometry" />
        </mxCell>
        <mxCell id="v_rGobsMjEYAZ9qF_yhi-6" value="" style="ellipse;whiteSpace=wrap;html=1;aspect=fixed;fontSize=30;" vertex="1" parent="v_rGobsMjEYAZ9qF_yhi-1">
          <mxGeometry x="1175" y="375" width="30" height="30" as="geometry" />
        </mxCell>
        <mxCell id="v_rGobsMjEYAZ9qF_yhi-7" value="" style="rounded=1;whiteSpace=wrap;html=1;fontSize=30;" vertex="1" parent="v_rGobsMjEYAZ9qF_yhi-1">
          <mxGeometry x="1005" y="380" width="130" height="20" as="geometry" />
        </mxCell>
        <mxCell id="Im4tayPuZA-FGE85DXuq-1" value="" style="line;strokeWidth=2;html=1;fontSize=19;fontColor=#E6E6E6;strokeColor=#CCCCCC;" vertex="1" parent="v_rGobsMjEYAZ9qF_yhi-1">
          <mxGeometry x="685" y="2002" width="825" height="10" as="geometry" />
        </mxCell>
        <mxCell id="Im4tayPuZA-FGE85DXuq-2" value="" style="html=1;verticalLabelPosition=bottom;align=center;labelBackgroundColor=#ffffff;verticalAlign=top;strokeWidth=2;shadow=0;dashed=0;shape=mxgraph.ios7.icons.user;fontSize=19;fontColor=#E6E6E6;" vertex="1" parent="v_rGobsMjEYAZ9qF_yhi-1">
          <mxGeometry x="1360" y="2030" width="65" height="65" as="geometry" />
        </mxCell>
        <mxCell id="Im4tayPuZA-FGE85DXuq-3" value="" style="html=1;verticalLabelPosition=bottom;align=center;labelBackgroundColor=#ffffff;verticalAlign=top;strokeWidth=2;shadow=0;dashed=0;shape=mxgraph.ios7.icons.home;fontSize=19;fontColor=#E6E6E6;strokeColor=#CDA2BE;" vertex="1" parent="v_rGobsMjEYAZ9qF_yhi-1">
          <mxGeometry x="770" y="2030" width="65" height="65" as="geometry" />
        </mxCell>
        <mxCell id="Im4tayPuZA-FGE85DXuq-4" value="" style="html=1;verticalLabelPosition=bottom;align=center;labelBackgroundColor=#ffffff;verticalAlign=top;strokeWidth=2;shadow=0;dashed=0;shape=mxgraph.ios7.icons.location_2;fontSize=19;fontColor=#E6E6E6;" vertex="1" parent="v_rGobsMjEYAZ9qF_yhi-1">
          <mxGeometry x="920" y="2030" width="65" height="65" as="geometry" />
        </mxCell>
        <mxCell id="Im4tayPuZA-FGE85DXuq-5" value="" style="html=1;verticalLabelPosition=bottom;align=center;labelBackgroundColor=#ffffff;verticalAlign=top;strokeWidth=2;shadow=0;dashed=0;shape=mxgraph.ios7.icons.folders_2;fontSize=19;fontColor=#E6E6E6;" vertex="1" parent="v_rGobsMjEYAZ9qF_yhi-1">
          <mxGeometry x="1220" y="2035" width="65" height="55" as="geometry" />
        </mxCell>
        <mxCell id="Im4tayPuZA-FGE85DXuq-6" value="" style="html=1;verticalLabelPosition=bottom;align=center;labelBackgroundColor=#ffffff;verticalAlign=top;strokeWidth=2;shadow=0;dashed=0;shape=mxgraph.ios7.icons.location;fontSize=19;fontColor=#E6E6E6;" vertex="1" parent="v_rGobsMjEYAZ9qF_yhi-1">
          <mxGeometry x="1065" y="2030" width="64" height="70" as="geometry" />
        </mxCell>
        <mxCell id="Im4tayPuZA-FGE85DXuq-7" value="ホーム" style="text;html=1;strokeColor=none;fillColor=none;align=center;verticalAlign=middle;whiteSpace=wrap;rounded=0;fontSize=19;" vertex="1" parent="v_rGobsMjEYAZ9qF_yhi-1">
          <mxGeometry x="742.5" y="2105" width="120" height="20" as="geometry" />
        </mxCell>
        <mxCell id="Im4tayPuZA-FGE85DXuq-8" value="スタンプラリー" style="text;html=1;strokeColor=none;fillColor=none;align=center;verticalAlign=middle;whiteSpace=wrap;rounded=0;fontSize=19;" vertex="1" parent="v_rGobsMjEYAZ9qF_yhi-1">
          <mxGeometry x="881.25" y="2105" width="142.5" height="20" as="geometry" />
        </mxCell>
        <mxCell id="Im4tayPuZA-FGE85DXuq-9" value="マップ作成" style="text;html=1;strokeColor=none;fillColor=none;align=center;verticalAlign=middle;whiteSpace=wrap;rounded=0;fontSize=19;" vertex="1" parent="v_rGobsMjEYAZ9qF_yhi-1">
          <mxGeometry x="1037" y="2105" width="120" height="20" as="geometry" />
        </mxCell>
        <mxCell id="Im4tayPuZA-FGE85DXuq-10" value="マップ一覧" style="text;html=1;strokeColor=none;fillColor=none;align=center;verticalAlign=middle;whiteSpace=wrap;rounded=0;fontSize=19;" vertex="1" parent="v_rGobsMjEYAZ9qF_yhi-1">
          <mxGeometry x="1192.5" y="2105" width="120" height="20" as="geometry" />
        </mxCell>
        <mxCell id="Im4tayPuZA-FGE85DXuq-11" value="ユーザー情報" style="text;html=1;strokeColor=none;fillColor=none;align=center;verticalAlign=middle;whiteSpace=wrap;rounded=0;fontSize=19;" vertex="1" parent="v_rGobsMjEYAZ9qF_yhi-1">
          <mxGeometry x="1332.5" y="2105" width="120" height="20" as="geometry" />
        </mxCell>
        <mxCell id="Im4tayPuZA-FGE85DXuq-12" value="" style="rounded=0;whiteSpace=wrap;html=1;fontSize=19;fontColor=#000000;" vertex="1" parent="v_rGobsMjEYAZ9qF_yhi-1">
          <mxGeometry x="735" y="560" width="730" height="580" as="geometry" />
        </mxCell>
        <mxCell id="zKMDCzI2gdfBzLoJ_r34-0" value="ホーム" style="text;html=1;strokeColor=none;fillColor=none;align=left;verticalAlign=middle;whiteSpace=wrap;rounded=0;fontSize=60;" vertex="1" parent="v_rGobsMjEYAZ9qF_yhi-1">
          <mxGeometry x="745" y="480" width="430" height="20" as="geometry" />
        </mxCell>
        <mxCell id="zKMDCzI2gdfBzLoJ_r34-1" value="あなたへのおすすめ" style="text;html=1;strokeColor=none;fillColor=none;align=left;verticalAlign=middle;whiteSpace=wrap;rounded=0;fontSize=35;fontColor=#000000;" vertex="1" parent="v_rGobsMjEYAZ9qF_yhi-1">
          <mxGeometry x="770" y="610" width="490" height="20" as="geometry" />
        </mxCell>
        <mxCell id="zKMDCzI2gdfBzLoJ_r34-2" value="" style="html=1;verticalLabelPosition=bottom;labelBackgroundColor=#ffffff;verticalAlign=top;shadow=0;dashed=0;strokeWidth=2;shape=mxgraph.ios7.misc.scroll_(vertical);fillColor=#a0a0a0;fontSize=35;fontColor=#000000;align=left;" vertex="1" parent="v_rGobsMjEYAZ9qF_yhi-1">
          <mxGeometry x="1488" y="1030" width="12" height="320" as="geometry" />
        </mxCell>
        <mxCell id="zKMDCzI2gdfBzLoJ_r34-3" value="" style="html=1;verticalLabelPosition=bottom;labelBackgroundColor=#ffffff;verticalAlign=top;shadow=0;dashed=0;strokeWidth=1;shape=mxgraph.ios7ui.pageControl;fillColor=#222222;strokeColor=#aaaaaa;fontSize=35;fontColor=#000000;align=left;" vertex="1" parent="v_rGobsMjEYAZ9qF_yhi-1">
          <mxGeometry x="1022" y="1090" width="150" height="15" as="geometry" />
        </mxCell>
        <mxCell id="zKMDCzI2gdfBzLoJ_r34-4" value="&lt;table border=&quot;1&quot; width=&quot;100%&quot; cellpadding=&quot;4&quot; style=&quot;width: 100% ; height: 100% ; border-collapse: collapse&quot;&gt;&lt;tbody&gt;&lt;tr&gt;&lt;th align=&quot;center&quot;&gt;&lt;b&gt;Title&lt;/b&gt;&lt;/th&gt;&lt;/tr&gt;&lt;tr&gt;&lt;td align=&quot;center&quot;&gt;都道府県&lt;br&gt;市町村&lt;/td&gt;&lt;/tr&gt;&lt;tr&gt;&lt;td align=&quot;center&quot;&gt;タグ&lt;/td&gt;&lt;/tr&gt;&lt;/tbody&gt;&lt;/table&gt;" style="text;html=1;strokeColor=none;fillColor=none;overflow=fill;fontSize=35;fontColor=#000000;align=left;" vertex="1" parent="v_rGobsMjEYAZ9qF_yhi-1">
          <mxGeometry x="780" y="720" width="210" height="290" as="geometry" />
        </mxCell>
        <mxCell id="zKMDCzI2gdfBzLoJ_r34-5" value="&lt;table border=&quot;1&quot; width=&quot;100%&quot; cellpadding=&quot;4&quot; style=&quot;width: 100% ; height: 100% ; border-collapse: collapse&quot;&gt;&lt;tbody&gt;&lt;tr&gt;&lt;th align=&quot;center&quot;&gt;&lt;b&gt;Title&lt;/b&gt;&lt;/th&gt;&lt;/tr&gt;&lt;tr&gt;&lt;td align=&quot;center&quot;&gt;都道府県&lt;br&gt;市町村&lt;/td&gt;&lt;/tr&gt;&lt;tr&gt;&lt;td align=&quot;center&quot;&gt;タグ&lt;/td&gt;&lt;/tr&gt;&lt;/tbody&gt;&lt;/table&gt;" style="text;html=1;strokeColor=none;fillColor=none;overflow=fill;fontSize=35;fontColor=#000000;align=left;" vertex="1" parent="v_rGobsMjEYAZ9qF_yhi-1">
          <mxGeometry x="1000" y="720" width="210" height="290" as="geometry" />
        </mxCell>
        <mxCell id="zKMDCzI2gdfBzLoJ_r34-6" value="&lt;table border=&quot;1&quot; width=&quot;100%&quot; cellpadding=&quot;4&quot; style=&quot;width: 100% ; height: 100% ; border-collapse: collapse&quot;&gt;&lt;tbody&gt;&lt;tr&gt;&lt;th align=&quot;center&quot;&gt;&lt;b&gt;Title&lt;/b&gt;&lt;/th&gt;&lt;/tr&gt;&lt;tr&gt;&lt;td align=&quot;center&quot;&gt;都道府県&lt;br&gt;市町村&lt;/td&gt;&lt;/tr&gt;&lt;tr&gt;&lt;td align=&quot;center&quot;&gt;タグ&lt;/td&gt;&lt;/tr&gt;&lt;/tbody&gt;&lt;/table&gt;" style="text;html=1;strokeColor=none;fillColor=none;overflow=fill;fontSize=35;fontColor=#000000;align=left;" vertex="1" parent="v_rGobsMjEYAZ9qF_yhi-1">
          <mxGeometry x="1220" y="720" width="210" height="290" as="geometry" />
        </mxCell>
        <mxCell id="zKMDCzI2gdfBzLoJ_r34-7" value="" style="rounded=0;whiteSpace=wrap;html=1;fontSize=19;fontColor=#000000;" vertex="1" parent="v_rGobsMjEYAZ9qF_yhi-1">
          <mxGeometry x="735" y="1170" width="730" height="580" as="geometry" />
        </mxCell>
        <mxCell id="zKMDCzI2gdfBzLoJ_r34-8" value="現在地の周辺のマップ" style="text;html=1;strokeColor=none;fillColor=none;align=left;verticalAlign=middle;whiteSpace=wrap;rounded=0;fontSize=35;fontColor=#000000;" vertex="1" parent="v_rGobsMjEYAZ9qF_yhi-1">
          <mxGeometry x="770" y="1220" width="490" height="20" as="geometry" />
        </mxCell>
        <mxCell id="zKMDCzI2gdfBzLoJ_r34-9" value="" style="html=1;verticalLabelPosition=bottom;labelBackgroundColor=#ffffff;verticalAlign=top;shadow=0;dashed=0;strokeWidth=1;shape=mxgraph.ios7ui.pageControl;fillColor=#222222;strokeColor=#aaaaaa;fontSize=35;fontColor=#000000;align=left;" vertex="1" parent="v_rGobsMjEYAZ9qF_yhi-1">
          <mxGeometry x="1022" y="1700" width="150" height="15" as="geometry" />
        </mxCell>
        <mxCell id="zKMDCzI2gdfBzLoJ_r34-10" value="&lt;table border=&quot;1&quot; width=&quot;100%&quot; cellpadding=&quot;4&quot; style=&quot;width: 100% ; height: 100% ; border-collapse: collapse&quot;&gt;&lt;tbody&gt;&lt;tr&gt;&lt;th align=&quot;center&quot;&gt;&lt;b&gt;Title&lt;/b&gt;&lt;/th&gt;&lt;/tr&gt;&lt;tr&gt;&lt;td align=&quot;center&quot;&gt;都道府県&lt;br&gt;市町村&lt;/td&gt;&lt;/tr&gt;&lt;tr&gt;&lt;td align=&quot;center&quot;&gt;タグ&lt;/td&gt;&lt;/tr&gt;&lt;/tbody&gt;&lt;/table&gt;" style="text;html=1;strokeColor=none;fillColor=none;overflow=fill;fontSize=35;fontColor=#000000;align=left;" vertex="1" parent="v_rGobsMjEYAZ9qF_yhi-1">
          <mxGeometry x="780" y="1330" width="210" height="290" as="geometry" />
        </mxCell>
        <mxCell id="zKMDCzI2gdfBzLoJ_r34-11" value="&lt;table border=&quot;1&quot; width=&quot;100%&quot; cellpadding=&quot;4&quot; style=&quot;width: 100% ; height: 100% ; border-collapse: collapse&quot;&gt;&lt;tbody&gt;&lt;tr&gt;&lt;th align=&quot;center&quot;&gt;&lt;b&gt;Title&lt;/b&gt;&lt;/th&gt;&lt;/tr&gt;&lt;tr&gt;&lt;td align=&quot;center&quot;&gt;都道府県&lt;br&gt;市町村&lt;/td&gt;&lt;/tr&gt;&lt;tr&gt;&lt;td align=&quot;center&quot;&gt;タグ&lt;/td&gt;&lt;/tr&gt;&lt;/tbody&gt;&lt;/table&gt;" style="text;html=1;strokeColor=none;fillColor=none;overflow=fill;fontSize=35;fontColor=#000000;align=left;" vertex="1" parent="v_rGobsMjEYAZ9qF_yhi-1">
          <mxGeometry x="1000" y="1330" width="210" height="290" as="geometry" />
        </mxCell>
        <mxCell id="zKMDCzI2gdfBzLoJ_r34-12" value="&lt;table border=&quot;1&quot; width=&quot;100%&quot; cellpadding=&quot;4&quot; style=&quot;width: 100% ; height: 100% ; border-collapse: collapse&quot;&gt;&lt;tbody&gt;&lt;tr&gt;&lt;th align=&quot;center&quot;&gt;&lt;b&gt;Title&lt;/b&gt;&lt;/th&gt;&lt;/tr&gt;&lt;tr&gt;&lt;td align=&quot;center&quot;&gt;都道府県&lt;br&gt;市町村&lt;/td&gt;&lt;/tr&gt;&lt;tr&gt;&lt;td align=&quot;center&quot;&gt;タグ&lt;/td&gt;&lt;/tr&gt;&lt;/tbody&gt;&lt;/table&gt;" style="text;html=1;strokeColor=none;fillColor=none;overflow=fill;fontSize=35;fontColor=#000000;align=left;" vertex="1" parent="v_rGobsMjEYAZ9qF_yhi-1">
          <mxGeometry x="1220" y="1330" width="210" height="290" as="geometry" />
        </mxCell>
        <mxCell id="zKMDCzI2gdfBzLoJ_r34-13" value="" style="rounded=0;whiteSpace=wrap;html=1;fontSize=19;fontColor=#000000;" vertex="1" parent="v_rGobsMjEYAZ9qF_yhi-1">
          <mxGeometry x="735" y="1772.5" width="730" height="227.5" as="geometry" />
        </mxCell>
        <mxCell id="zKMDCzI2gdfBzLoJ_r34-14" value="マップランキング" style="text;html=1;strokeColor=none;fillColor=none;align=left;verticalAlign=middle;whiteSpace=wrap;rounded=0;fontSize=35;fontColor=#000000;" vertex="1" parent="v_rGobsMjEYAZ9qF_yhi-1">
          <mxGeometry x="770" y="1810" width="490" height="20" as="geometry" />
        </mxCell>
        <mxCell id="Qloe6lZg5PWdSMuulkug-0" value="メモ）&lt;br&gt;この画面を表示するときにPermissionが必要。&lt;br&gt;&lt;br&gt;マップランキングは初回は準備中を表示かな・・・&lt;br&gt;&lt;br&gt;下のアイコンは選択中はグレイアウト" style="text;html=1;strokeColor=none;fillColor=none;align=left;verticalAlign=middle;whiteSpace=wrap;rounded=0;fontSize=35;fontColor=#000000;" vertex="1" parent="v_rGobsMjEYAZ9qF_yhi-1">
          <mxGeometry x="1610" y="760" width="490" height="230" as="geometry" />
        </mxCell>
        <mxCell id="AMtUogw8COTPqYRlioxw-0" value="準備中..." style="text;html=1;strokeColor=none;fillColor=none;align=center;verticalAlign=middle;whiteSpace=wrap;rounded=0;fontSize=35;fontColor=#000000;" vertex="1" parent="v_rGobsMjEYAZ9qF_yhi-1">
          <mxGeometry x="935" y="1910" width="270" height="20" as="geometry" />
        </mxCell>
        <mxCell id="AMtUogw8COTPqYRlioxw-2" value="" style="html=1;verticalLabelPosition=bottom;align=center;labelBackgroundColor=#ffffff;verticalAlign=top;strokeWidth=2;shadow=0;dashed=0;shape=mxgraph.ios7.icons.reload;fontSize=35;fontColor=#000000;" vertex="1" parent="v_rGobsMjEYAZ9qF_yhi-1">
          <mxGeometry x="1350" y="456.5" width="65" height="67" as="geometry" />
        </mxCell>
      </root>
    </mxGraphModel>
  </diagram>
  <diagram name="No.5 スタンプラリー" id="9XHBaO4jtHVrhs-pZ4wR">
    <mxGraphModel dx="2920" dy="1897" grid="1" gridSize="10" guides="1" tooltips="1" connect="1" arrows="1" fold="1" page="1" pageScale="1" pageWidth="1100" pageHeight="850" background="#ffffff" math="0" shadow="0">
      <root>
        <mxCell id="Cer3NiA87-fvjd2dPC00-0" />
        <mxCell id="Cer3NiA87-fvjd2dPC00-1" parent="Cer3NiA87-fvjd2dPC00-0" />
        <mxCell id="Cer3NiA87-fvjd2dPC00-2" value="" style="rounded=1;whiteSpace=wrap;html=1;fontSize=30;" vertex="1" parent="Cer3NiA87-fvjd2dPC00-1">
          <mxGeometry x="655" y="330" width="890" height="1850" as="geometry" />
        </mxCell>
        <mxCell id="Cer3NiA87-fvjd2dPC00-3" value="" style="rounded=1;whiteSpace=wrap;html=1;" vertex="1" parent="Cer3NiA87-fvjd2dPC00-1">
          <mxGeometry x="685" y="360" width="828" height="1792" as="geometry" />
        </mxCell>
        <mxCell id="Cer3NiA87-fvjd2dPC00-4" value="" style="rounded=1;whiteSpace=wrap;html=1;fontSize=30;" vertex="1" parent="Cer3NiA87-fvjd2dPC00-1">
          <mxGeometry x="905" y="360" width="400" height="60" as="geometry" />
        </mxCell>
        <mxCell id="Cer3NiA87-fvjd2dPC00-5" value="" style="ellipse;whiteSpace=wrap;html=1;aspect=fixed;fontSize=30;" vertex="1" parent="Cer3NiA87-fvjd2dPC00-1">
          <mxGeometry x="1175" y="375" width="30" height="30" as="geometry" />
        </mxCell>
        <mxCell id="Cer3NiA87-fvjd2dPC00-6" value="" style="rounded=1;whiteSpace=wrap;html=1;fontSize=30;" vertex="1" parent="Cer3NiA87-fvjd2dPC00-1">
          <mxGeometry x="1005" y="380" width="130" height="20" as="geometry" />
        </mxCell>
        <mxCell id="Cer3NiA87-fvjd2dPC00-7" value="" style="line;strokeWidth=2;html=1;fontSize=19;fontColor=#E6E6E6;strokeColor=#CCCCCC;" vertex="1" parent="Cer3NiA87-fvjd2dPC00-1">
          <mxGeometry x="685" y="2002" width="825" height="10" as="geometry" />
        </mxCell>
        <mxCell id="Cer3NiA87-fvjd2dPC00-8" value="" style="html=1;verticalLabelPosition=bottom;align=center;labelBackgroundColor=#ffffff;verticalAlign=top;strokeWidth=2;shadow=0;dashed=0;shape=mxgraph.ios7.icons.user;fontSize=19;fontColor=#E6E6E6;" vertex="1" parent="Cer3NiA87-fvjd2dPC00-1">
          <mxGeometry x="1360" y="2030" width="65" height="65" as="geometry" />
        </mxCell>
        <mxCell id="Cer3NiA87-fvjd2dPC00-9" value="" style="html=1;verticalLabelPosition=bottom;align=center;labelBackgroundColor=#ffffff;verticalAlign=top;strokeWidth=2;shadow=0;dashed=0;shape=mxgraph.ios7.icons.home;fontSize=19;fontColor=#E6E6E6;" vertex="1" parent="Cer3NiA87-fvjd2dPC00-1">
          <mxGeometry x="770" y="2030" width="65" height="65" as="geometry" />
        </mxCell>
        <mxCell id="Cer3NiA87-fvjd2dPC00-10" value="" style="html=1;verticalLabelPosition=bottom;align=center;labelBackgroundColor=#ffffff;verticalAlign=top;strokeWidth=2;shadow=0;dashed=0;shape=mxgraph.ios7.icons.location_2;fontSize=19;fontColor=#E6E6E6;strokeColor=#CDA2BE;" vertex="1" parent="Cer3NiA87-fvjd2dPC00-1">
          <mxGeometry x="920" y="2030" width="65" height="65" as="geometry" />
        </mxCell>
        <mxCell id="Cer3NiA87-fvjd2dPC00-11" value="" style="html=1;verticalLabelPosition=bottom;align=center;labelBackgroundColor=#ffffff;verticalAlign=top;strokeWidth=2;shadow=0;dashed=0;shape=mxgraph.ios7.icons.folders_2;fontSize=19;fontColor=#E6E6E6;" vertex="1" parent="Cer3NiA87-fvjd2dPC00-1">
          <mxGeometry x="1220" y="2035" width="65" height="55" as="geometry" />
        </mxCell>
        <mxCell id="Cer3NiA87-fvjd2dPC00-12" value="" style="html=1;verticalLabelPosition=bottom;align=center;labelBackgroundColor=#ffffff;verticalAlign=top;strokeWidth=2;shadow=0;dashed=0;shape=mxgraph.ios7.icons.location;fontSize=19;fontColor=#E6E6E6;" vertex="1" parent="Cer3NiA87-fvjd2dPC00-1">
          <mxGeometry x="1065" y="2030" width="64" height="70" as="geometry" />
        </mxCell>
        <mxCell id="Cer3NiA87-fvjd2dPC00-13" value="ホーム" style="text;html=1;strokeColor=none;fillColor=none;align=center;verticalAlign=middle;whiteSpace=wrap;rounded=0;fontSize=19;" vertex="1" parent="Cer3NiA87-fvjd2dPC00-1">
          <mxGeometry x="742.5" y="2105" width="120" height="20" as="geometry" />
        </mxCell>
        <mxCell id="Cer3NiA87-fvjd2dPC00-14" value="スタンプラリー" style="text;html=1;strokeColor=none;fillColor=none;align=center;verticalAlign=middle;whiteSpace=wrap;rounded=0;fontSize=19;" vertex="1" parent="Cer3NiA87-fvjd2dPC00-1">
          <mxGeometry x="881.25" y="2105" width="142.5" height="20" as="geometry" />
        </mxCell>
        <mxCell id="Cer3NiA87-fvjd2dPC00-15" value="マップ作成" style="text;html=1;strokeColor=none;fillColor=none;align=center;verticalAlign=middle;whiteSpace=wrap;rounded=0;fontSize=19;" vertex="1" parent="Cer3NiA87-fvjd2dPC00-1">
          <mxGeometry x="1037" y="2105" width="120" height="20" as="geometry" />
        </mxCell>
        <mxCell id="Cer3NiA87-fvjd2dPC00-16" value="マップ一覧" style="text;html=1;strokeColor=none;fillColor=none;align=center;verticalAlign=middle;whiteSpace=wrap;rounded=0;fontSize=19;" vertex="1" parent="Cer3NiA87-fvjd2dPC00-1">
          <mxGeometry x="1192.5" y="2105" width="120" height="20" as="geometry" />
        </mxCell>
        <mxCell id="Cer3NiA87-fvjd2dPC00-17" value="ユーザー情報" style="text;html=1;strokeColor=none;fillColor=none;align=center;verticalAlign=middle;whiteSpace=wrap;rounded=0;fontSize=19;" vertex="1" parent="Cer3NiA87-fvjd2dPC00-1">
          <mxGeometry x="1332.5" y="2105" width="120" height="20" as="geometry" />
        </mxCell>
        <mxCell id="Cer3NiA87-fvjd2dPC00-19" value="スタンプラリー" style="text;html=1;strokeColor=none;fillColor=none;align=left;verticalAlign=middle;whiteSpace=wrap;rounded=0;fontSize=60;" vertex="1" parent="Cer3NiA87-fvjd2dPC00-1">
          <mxGeometry x="745" y="480" width="430" height="20" as="geometry" />
        </mxCell>
        <mxCell id="kMG4vgLyQ6BkZnpMhSO--1" value="" style="html=1;verticalLabelPosition=bottom;align=center;labelBackgroundColor=#ffffff;verticalAlign=top;strokeWidth=2;shadow=0;dashed=0;shape=mxgraph.ios7.icons.options;pointerEvents=1;fontSize=35;fontColor=#000000;" vertex="1" parent="Cer3NiA87-fvjd2dPC00-1">
          <mxGeometry x="1387.5" y="467.5" width="65" height="45" as="geometry" />
        </mxCell>
        <mxCell id="McM-to7vz5tiXQn8-7Wo-0" value="" style="verticalLabelPosition=bottom;verticalAlign=top;html=1;shadow=0;dashed=0;strokeWidth=1;shape=mxgraph.ios.iBgMap;strokeColor=#18211b;strokeColor2=#008cff;fillColor2=#96D1FF;fontSize=35;fontColor=#000000;align=left;" vertex="1" parent="Cer3NiA87-fvjd2dPC00-1">
          <mxGeometry x="740" y="600" width="700" height="1270" as="geometry" />
        </mxCell>
        <mxCell id="McM-to7vz5tiXQn8-7Wo-1" value="" style="verticalLabelPosition=top;html=1;shadow=0;dashed=0;verticalAlign=bottom;strokeWidth=1;shape=mxgraph.ios.iPin;fillColor2=#ffff00;fillColor3=#888800;strokeColor=#999900;fontSize=35;fontColor=#000000;align=left;" vertex="1" parent="Cer3NiA87-fvjd2dPC00-1">
          <mxGeometry x="1055" y="860" width="30" height="75" as="geometry" />
        </mxCell>
        <mxCell id="McM-to7vz5tiXQn8-7Wo-2" value="" style="verticalLabelPosition=top;html=1;shadow=0;dashed=0;verticalAlign=bottom;strokeWidth=1;shape=mxgraph.ios.iPin;fillColor2=#ffff00;fillColor3=#888800;strokeColor=#999900;fontSize=35;fontColor=#000000;align=left;" vertex="1" parent="Cer3NiA87-fvjd2dPC00-1">
          <mxGeometry x="881.25" y="1090" width="30" height="75" as="geometry" />
        </mxCell>
        <mxCell id="McM-to7vz5tiXQn8-7Wo-3" value="&lt;font style=&quot;font-size: 45px&quot;&gt;GET&lt;/font&gt;" style="text;html=1;strokeColor=#d6b656;fillColor=#fff2cc;align=center;verticalAlign=middle;whiteSpace=wrap;rounded=0;fontSize=35;" vertex="1" parent="Cer3NiA87-fvjd2dPC00-1">
          <mxGeometry x="720" y="1910" width="161.25" height="60" as="geometry" />
        </mxCell>
        <mxCell id="McM-to7vz5tiXQn8-7Wo-4" value="&lt;font style=&quot;font-size: 45px&quot;&gt;4 / 10&lt;/font&gt;" style="text;html=1;strokeColor=none;fillColor=none;align=center;verticalAlign=middle;whiteSpace=wrap;rounded=0;fontSize=35;fontColor=#000000;" vertex="1" parent="Cer3NiA87-fvjd2dPC00-1">
          <mxGeometry x="1312.5" y="1900" width="140" height="70" as="geometry" />
        </mxCell>
      </root>
    </mxGraphModel>
  </diagram>
  <diagram name="No.5.0 スタンプラリー初期表示" id="jUkUmu2nt2GZuInRFbIa">
    <mxGraphModel dx="4380" dy="2845" grid="1" gridSize="10" guides="1" tooltips="1" connect="1" arrows="1" fold="1" page="1" pageScale="1" pageWidth="1100" pageHeight="850" background="#ffffff" math="0" shadow="0">
      <root>
        <mxCell id="pJapuxR-VcJE4ZHOdlCs-0" />
        <mxCell id="pJapuxR-VcJE4ZHOdlCs-1" parent="pJapuxR-VcJE4ZHOdlCs-0" />
        <mxCell id="pJapuxR-VcJE4ZHOdlCs-2" value="" style="rounded=1;whiteSpace=wrap;html=1;fontSize=30;" vertex="1" parent="pJapuxR-VcJE4ZHOdlCs-1">
          <mxGeometry x="655" y="330" width="890" height="1850" as="geometry" />
        </mxCell>
        <mxCell id="pJapuxR-VcJE4ZHOdlCs-3" value="" style="rounded=1;whiteSpace=wrap;html=1;" vertex="1" parent="pJapuxR-VcJE4ZHOdlCs-1">
          <mxGeometry x="685" y="360" width="828" height="1792" as="geometry" />
        </mxCell>
        <mxCell id="pJapuxR-VcJE4ZHOdlCs-4" value="" style="rounded=1;whiteSpace=wrap;html=1;fontSize=30;" vertex="1" parent="pJapuxR-VcJE4ZHOdlCs-1">
          <mxGeometry x="905" y="360" width="400" height="60" as="geometry" />
        </mxCell>
        <mxCell id="pJapuxR-VcJE4ZHOdlCs-5" value="" style="ellipse;whiteSpace=wrap;html=1;aspect=fixed;fontSize=30;" vertex="1" parent="pJapuxR-VcJE4ZHOdlCs-1">
          <mxGeometry x="1175" y="375" width="30" height="30" as="geometry" />
        </mxCell>
        <mxCell id="pJapuxR-VcJE4ZHOdlCs-6" value="" style="rounded=1;whiteSpace=wrap;html=1;fontSize=30;" vertex="1" parent="pJapuxR-VcJE4ZHOdlCs-1">
          <mxGeometry x="1005" y="380" width="130" height="20" as="geometry" />
        </mxCell>
        <mxCell id="pJapuxR-VcJE4ZHOdlCs-7" value="" style="line;strokeWidth=2;html=1;fontSize=19;fontColor=#E6E6E6;strokeColor=#CCCCCC;" vertex="1" parent="pJapuxR-VcJE4ZHOdlCs-1">
          <mxGeometry x="685" y="2002" width="825" height="10" as="geometry" />
        </mxCell>
        <mxCell id="pJapuxR-VcJE4ZHOdlCs-8" value="" style="html=1;verticalLabelPosition=bottom;align=center;labelBackgroundColor=#ffffff;verticalAlign=top;strokeWidth=2;shadow=0;dashed=0;shape=mxgraph.ios7.icons.user;fontSize=19;fontColor=#E6E6E6;" vertex="1" parent="pJapuxR-VcJE4ZHOdlCs-1">
          <mxGeometry x="1360" y="2030" width="65" height="65" as="geometry" />
        </mxCell>
        <mxCell id="pJapuxR-VcJE4ZHOdlCs-9" value="" style="html=1;verticalLabelPosition=bottom;align=center;labelBackgroundColor=#ffffff;verticalAlign=top;strokeWidth=2;shadow=0;dashed=0;shape=mxgraph.ios7.icons.home;fontSize=19;fontColor=#E6E6E6;" vertex="1" parent="pJapuxR-VcJE4ZHOdlCs-1">
          <mxGeometry x="770" y="2030" width="65" height="65" as="geometry" />
        </mxCell>
        <mxCell id="pJapuxR-VcJE4ZHOdlCs-10" value="" style="html=1;verticalLabelPosition=bottom;align=center;labelBackgroundColor=#ffffff;verticalAlign=top;strokeWidth=2;shadow=0;dashed=0;shape=mxgraph.ios7.icons.location_2;fontSize=19;fontColor=#E6E6E6;strokeColor=#CDA2BE;" vertex="1" parent="pJapuxR-VcJE4ZHOdlCs-1">
          <mxGeometry x="920" y="2030" width="65" height="65" as="geometry" />
        </mxCell>
        <mxCell id="pJapuxR-VcJE4ZHOdlCs-11" value="" style="html=1;verticalLabelPosition=bottom;align=center;labelBackgroundColor=#ffffff;verticalAlign=top;strokeWidth=2;shadow=0;dashed=0;shape=mxgraph.ios7.icons.folders_2;fontSize=19;fontColor=#E6E6E6;" vertex="1" parent="pJapuxR-VcJE4ZHOdlCs-1">
          <mxGeometry x="1220" y="2035" width="65" height="55" as="geometry" />
        </mxCell>
        <mxCell id="pJapuxR-VcJE4ZHOdlCs-12" value="" style="html=1;verticalLabelPosition=bottom;align=center;labelBackgroundColor=#ffffff;verticalAlign=top;strokeWidth=2;shadow=0;dashed=0;shape=mxgraph.ios7.icons.location;fontSize=19;fontColor=#E6E6E6;" vertex="1" parent="pJapuxR-VcJE4ZHOdlCs-1">
          <mxGeometry x="1065" y="2030" width="64" height="70" as="geometry" />
        </mxCell>
        <mxCell id="pJapuxR-VcJE4ZHOdlCs-13" value="ホーム" style="text;html=1;strokeColor=none;fillColor=none;align=center;verticalAlign=middle;whiteSpace=wrap;rounded=0;fontSize=19;" vertex="1" parent="pJapuxR-VcJE4ZHOdlCs-1">
          <mxGeometry x="742.5" y="2105" width="120" height="20" as="geometry" />
        </mxCell>
        <mxCell id="pJapuxR-VcJE4ZHOdlCs-14" value="スタンプラリー" style="text;html=1;strokeColor=none;fillColor=none;align=center;verticalAlign=middle;whiteSpace=wrap;rounded=0;fontSize=19;" vertex="1" parent="pJapuxR-VcJE4ZHOdlCs-1">
          <mxGeometry x="881.25" y="2105" width="142.5" height="20" as="geometry" />
        </mxCell>
        <mxCell id="pJapuxR-VcJE4ZHOdlCs-15" value="マップ作成" style="text;html=1;strokeColor=none;fillColor=none;align=center;verticalAlign=middle;whiteSpace=wrap;rounded=0;fontSize=19;" vertex="1" parent="pJapuxR-VcJE4ZHOdlCs-1">
          <mxGeometry x="1037" y="2105" width="120" height="20" as="geometry" />
        </mxCell>
        <mxCell id="pJapuxR-VcJE4ZHOdlCs-16" value="マップ一覧" style="text;html=1;strokeColor=none;fillColor=none;align=center;verticalAlign=middle;whiteSpace=wrap;rounded=0;fontSize=19;" vertex="1" parent="pJapuxR-VcJE4ZHOdlCs-1">
          <mxGeometry x="1192.5" y="2105" width="120" height="20" as="geometry" />
        </mxCell>
        <mxCell id="pJapuxR-VcJE4ZHOdlCs-17" value="ユーザー情報" style="text;html=1;strokeColor=none;fillColor=none;align=center;verticalAlign=middle;whiteSpace=wrap;rounded=0;fontSize=19;" vertex="1" parent="pJapuxR-VcJE4ZHOdlCs-1">
          <mxGeometry x="1332.5" y="2105" width="120" height="20" as="geometry" />
        </mxCell>
        <mxCell id="pJapuxR-VcJE4ZHOdlCs-18" value="スタンプラリー" style="text;html=1;strokeColor=none;fillColor=none;align=left;verticalAlign=middle;whiteSpace=wrap;rounded=0;fontSize=60;" vertex="1" parent="pJapuxR-VcJE4ZHOdlCs-1">
          <mxGeometry x="745" y="480" width="430" height="20" as="geometry" />
        </mxCell>
        <mxCell id="pJapuxR-VcJE4ZHOdlCs-19" value="" style="html=1;verticalLabelPosition=bottom;align=center;labelBackgroundColor=#ffffff;verticalAlign=top;strokeWidth=2;shadow=0;dashed=0;shape=mxgraph.ios7.icons.options;pointerEvents=1;fontSize=35;fontColor=#000000;" vertex="1" parent="pJapuxR-VcJE4ZHOdlCs-1">
          <mxGeometry x="1387.5" y="467.5" width="65" height="45" as="geometry" />
        </mxCell>
        <mxCell id="pJapuxR-VcJE4ZHOdlCs-25" value="&lt;div style=&quot;text-align: left&quot;&gt;&lt;span&gt;さあ、&lt;/span&gt;&lt;/div&gt;&lt;div style=&quot;text-align: left&quot;&gt;&lt;span&gt;　スタンプラリーを始めよう&lt;/span&gt;&lt;/div&gt;" style="text;html=1;strokeColor=none;fillColor=none;align=center;verticalAlign=middle;whiteSpace=wrap;rounded=0;fontSize=45;fontColor=#000000;" vertex="1" parent="pJapuxR-VcJE4ZHOdlCs-1">
          <mxGeometry x="723.75" y="800" width="692.5" height="330" as="geometry" />
        </mxCell>
        <mxCell id="pJapuxR-VcJE4ZHOdlCs-26" value="マップを作成する&lt;br&gt;マップを探す" style="text;html=1;strokeColor=none;fillColor=none;align=right;verticalAlign=middle;whiteSpace=wrap;rounded=0;fontSize=45;fontColor=#000000;" vertex="1" parent="pJapuxR-VcJE4ZHOdlCs-1">
          <mxGeometry x="745" y="1130" width="692.5" height="330" as="geometry" />
        </mxCell>
        <mxCell id="Mxq5OGCIgrWBj-XrJscq-0" value="メモ）&lt;br&gt;使用中のマップがない場合&lt;br&gt;" style="text;html=1;strokeColor=none;fillColor=none;align=left;verticalAlign=middle;whiteSpace=wrap;rounded=0;fontSize=35;fontColor=#000000;" vertex="1" parent="pJapuxR-VcJE4ZHOdlCs-1">
          <mxGeometry x="1610" y="760" width="490" height="230" as="geometry" />
        </mxCell>
      </root>
    </mxGraphModel>
  </diagram>
  <diagram name="No.5.1 スタンプラリーGET" id="81F16tgMsdxlmSqGx0fO">
    <mxGraphModel dx="2920" dy="1897" grid="1" gridSize="10" guides="1" tooltips="1" connect="1" arrows="1" fold="1" page="1" pageScale="1" pageWidth="1100" pageHeight="850" background="#ffffff" math="0" shadow="0">
      <root>
        <mxCell id="dw4w0KYpYsC4UQLAldl0-0" />
        <mxCell id="dw4w0KYpYsC4UQLAldl0-1" parent="dw4w0KYpYsC4UQLAldl0-0" />
        <mxCell id="dw4w0KYpYsC4UQLAldl0-2" value="" style="rounded=1;whiteSpace=wrap;html=1;fontSize=30;" vertex="1" parent="dw4w0KYpYsC4UQLAldl0-1">
          <mxGeometry x="655" y="330" width="890" height="1850" as="geometry" />
        </mxCell>
        <mxCell id="dw4w0KYpYsC4UQLAldl0-3" value="" style="rounded=1;whiteSpace=wrap;html=1;" vertex="1" parent="dw4w0KYpYsC4UQLAldl0-1">
          <mxGeometry x="685" y="360" width="828" height="1792" as="geometry" />
        </mxCell>
        <mxCell id="dw4w0KYpYsC4UQLAldl0-4" value="" style="rounded=1;whiteSpace=wrap;html=1;fontSize=30;" vertex="1" parent="dw4w0KYpYsC4UQLAldl0-1">
          <mxGeometry x="905" y="360" width="400" height="60" as="geometry" />
        </mxCell>
        <mxCell id="dw4w0KYpYsC4UQLAldl0-5" value="" style="ellipse;whiteSpace=wrap;html=1;aspect=fixed;fontSize=30;" vertex="1" parent="dw4w0KYpYsC4UQLAldl0-1">
          <mxGeometry x="1175" y="375" width="30" height="30" as="geometry" />
        </mxCell>
        <mxCell id="dw4w0KYpYsC4UQLAldl0-6" value="" style="rounded=1;whiteSpace=wrap;html=1;fontSize=30;" vertex="1" parent="dw4w0KYpYsC4UQLAldl0-1">
          <mxGeometry x="1005" y="380" width="130" height="20" as="geometry" />
        </mxCell>
        <mxCell id="dw4w0KYpYsC4UQLAldl0-7" value="" style="line;strokeWidth=2;html=1;fontSize=19;fontColor=#E6E6E6;strokeColor=#CCCCCC;" vertex="1" parent="dw4w0KYpYsC4UQLAldl0-1">
          <mxGeometry x="685" y="2002" width="825" height="10" as="geometry" />
        </mxCell>
        <mxCell id="dw4w0KYpYsC4UQLAldl0-8" value="" style="html=1;verticalLabelPosition=bottom;align=center;labelBackgroundColor=#ffffff;verticalAlign=top;strokeWidth=2;shadow=0;dashed=0;shape=mxgraph.ios7.icons.user;fontSize=19;fontColor=#E6E6E6;" vertex="1" parent="dw4w0KYpYsC4UQLAldl0-1">
          <mxGeometry x="1360" y="2030" width="65" height="65" as="geometry" />
        </mxCell>
        <mxCell id="dw4w0KYpYsC4UQLAldl0-9" value="" style="html=1;verticalLabelPosition=bottom;align=center;labelBackgroundColor=#ffffff;verticalAlign=top;strokeWidth=2;shadow=0;dashed=0;shape=mxgraph.ios7.icons.home;fontSize=19;fontColor=#E6E6E6;" vertex="1" parent="dw4w0KYpYsC4UQLAldl0-1">
          <mxGeometry x="770" y="2030" width="65" height="65" as="geometry" />
        </mxCell>
        <mxCell id="dw4w0KYpYsC4UQLAldl0-10" value="" style="html=1;verticalLabelPosition=bottom;align=center;labelBackgroundColor=#ffffff;verticalAlign=top;strokeWidth=2;shadow=0;dashed=0;shape=mxgraph.ios7.icons.location_2;fontSize=19;fontColor=#E6E6E6;strokeColor=#CDA2BE;" vertex="1" parent="dw4w0KYpYsC4UQLAldl0-1">
          <mxGeometry x="920" y="2030" width="65" height="65" as="geometry" />
        </mxCell>
        <mxCell id="dw4w0KYpYsC4UQLAldl0-11" value="" style="html=1;verticalLabelPosition=bottom;align=center;labelBackgroundColor=#ffffff;verticalAlign=top;strokeWidth=2;shadow=0;dashed=0;shape=mxgraph.ios7.icons.folders_2;fontSize=19;fontColor=#E6E6E6;" vertex="1" parent="dw4w0KYpYsC4UQLAldl0-1">
          <mxGeometry x="1220" y="2035" width="65" height="55" as="geometry" />
        </mxCell>
        <mxCell id="dw4w0KYpYsC4UQLAldl0-12" value="" style="html=1;verticalLabelPosition=bottom;align=center;labelBackgroundColor=#ffffff;verticalAlign=top;strokeWidth=2;shadow=0;dashed=0;shape=mxgraph.ios7.icons.location;fontSize=19;fontColor=#E6E6E6;" vertex="1" parent="dw4w0KYpYsC4UQLAldl0-1">
          <mxGeometry x="1065" y="2030" width="64" height="70" as="geometry" />
        </mxCell>
        <mxCell id="dw4w0KYpYsC4UQLAldl0-13" value="ホーム" style="text;html=1;strokeColor=none;fillColor=none;align=center;verticalAlign=middle;whiteSpace=wrap;rounded=0;fontSize=19;" vertex="1" parent="dw4w0KYpYsC4UQLAldl0-1">
          <mxGeometry x="742.5" y="2105" width="120" height="20" as="geometry" />
        </mxCell>
        <mxCell id="dw4w0KYpYsC4UQLAldl0-14" value="スタンプラリー" style="text;html=1;strokeColor=none;fillColor=none;align=center;verticalAlign=middle;whiteSpace=wrap;rounded=0;fontSize=19;" vertex="1" parent="dw4w0KYpYsC4UQLAldl0-1">
          <mxGeometry x="881.25" y="2105" width="142.5" height="20" as="geometry" />
        </mxCell>
        <mxCell id="dw4w0KYpYsC4UQLAldl0-15" value="マップ作成" style="text;html=1;strokeColor=none;fillColor=none;align=center;verticalAlign=middle;whiteSpace=wrap;rounded=0;fontSize=19;" vertex="1" parent="dw4w0KYpYsC4UQLAldl0-1">
          <mxGeometry x="1037" y="2105" width="120" height="20" as="geometry" />
        </mxCell>
        <mxCell id="dw4w0KYpYsC4UQLAldl0-16" value="マップ一覧" style="text;html=1;strokeColor=none;fillColor=none;align=center;verticalAlign=middle;whiteSpace=wrap;rounded=0;fontSize=19;" vertex="1" parent="dw4w0KYpYsC4UQLAldl0-1">
          <mxGeometry x="1192.5" y="2105" width="120" height="20" as="geometry" />
        </mxCell>
        <mxCell id="dw4w0KYpYsC4UQLAldl0-17" value="ユーザー情報" style="text;html=1;strokeColor=none;fillColor=none;align=center;verticalAlign=middle;whiteSpace=wrap;rounded=0;fontSize=19;" vertex="1" parent="dw4w0KYpYsC4UQLAldl0-1">
          <mxGeometry x="1332.5" y="2105" width="120" height="20" as="geometry" />
        </mxCell>
        <mxCell id="dw4w0KYpYsC4UQLAldl0-18" value="スタンプラリー" style="text;html=1;strokeColor=none;fillColor=none;align=left;verticalAlign=middle;whiteSpace=wrap;rounded=0;fontSize=60;" vertex="1" parent="dw4w0KYpYsC4UQLAldl0-1">
          <mxGeometry x="745" y="480" width="430" height="20" as="geometry" />
        </mxCell>
        <mxCell id="dw4w0KYpYsC4UQLAldl0-19" value="" style="html=1;verticalLabelPosition=bottom;align=center;labelBackgroundColor=#ffffff;verticalAlign=top;strokeWidth=2;shadow=0;dashed=0;shape=mxgraph.ios7.icons.options;pointerEvents=1;fontSize=35;fontColor=#000000;" vertex="1" parent="dw4w0KYpYsC4UQLAldl0-1">
          <mxGeometry x="1387.5" y="467.5" width="65" height="45" as="geometry" />
        </mxCell>
        <mxCell id="dw4w0KYpYsC4UQLAldl0-20" value="" style="verticalLabelPosition=bottom;verticalAlign=top;html=1;shadow=0;dashed=0;strokeWidth=1;shape=mxgraph.ios.iBgMap;strokeColor=#18211b;strokeColor2=#008cff;fillColor2=#96D1FF;fontSize=35;fontColor=#000000;align=left;" vertex="1" parent="dw4w0KYpYsC4UQLAldl0-1">
          <mxGeometry x="740" y="600" width="700" height="1270" as="geometry" />
        </mxCell>
        <mxCell id="dw4w0KYpYsC4UQLAldl0-21" value="" style="verticalLabelPosition=top;html=1;shadow=0;dashed=0;verticalAlign=bottom;strokeWidth=1;shape=mxgraph.ios.iPin;fillColor2=#ffff00;fillColor3=#888800;strokeColor=#999900;fontSize=35;fontColor=#000000;align=left;" vertex="1" parent="dw4w0KYpYsC4UQLAldl0-1">
          <mxGeometry x="1055" y="860" width="30" height="75" as="geometry" />
        </mxCell>
        <mxCell id="dw4w0KYpYsC4UQLAldl0-22" value="" style="verticalLabelPosition=top;html=1;shadow=0;dashed=0;verticalAlign=bottom;strokeWidth=1;shape=mxgraph.ios.iPin;fillColor2=#ffff00;fillColor3=#888800;strokeColor=#999900;fontSize=35;fontColor=#000000;align=left;" vertex="1" parent="dw4w0KYpYsC4UQLAldl0-1">
          <mxGeometry x="881.25" y="1090" width="30" height="75" as="geometry" />
        </mxCell>
        <mxCell id="dw4w0KYpYsC4UQLAldl0-23" value="&lt;font style=&quot;font-size: 45px&quot;&gt;GET&lt;/font&gt;" style="text;html=1;strokeColor=#d6b656;fillColor=#fff2cc;align=center;verticalAlign=middle;whiteSpace=wrap;rounded=0;fontSize=35;" vertex="1" parent="dw4w0KYpYsC4UQLAldl0-1">
          <mxGeometry x="720" y="1910" width="161.25" height="60" as="geometry" />
        </mxCell>
        <mxCell id="dw4w0KYpYsC4UQLAldl0-24" value="&lt;font style=&quot;font-size: 45px&quot;&gt;4 / 10&lt;/font&gt;" style="text;html=1;strokeColor=none;fillColor=none;align=center;verticalAlign=middle;whiteSpace=wrap;rounded=0;fontSize=35;fontColor=#000000;" vertex="1" parent="dw4w0KYpYsC4UQLAldl0-1">
          <mxGeometry x="1312.5" y="1900" width="140" height="70" as="geometry" />
        </mxCell>
        <mxCell id="4fN59mr1vvwU1dO_PUeE-0" value="" style="rounded=1;whiteSpace=wrap;html=1;strokeColor=#000000;fontSize=35;fontColor=#000000;align=left;" vertex="1" parent="dw4w0KYpYsC4UQLAldl0-1">
          <mxGeometry x="745" y="950" width="697.5" height="540" as="geometry" />
        </mxCell>
        <mxCell id="4fN59mr1vvwU1dO_PUeE-1" value="" style="shape=table;html=1;whiteSpace=wrap;startSize=0;container=1;collapsible=0;childLayout=tableLayout;strokeColor=#000000;fontSize=35;fontColor=#000000;align=left;" vertex="1" parent="dw4w0KYpYsC4UQLAldl0-1">
          <mxGeometry x="800" y="1130" width="570" height="270" as="geometry" />
        </mxCell>
        <mxCell id="4fN59mr1vvwU1dO_PUeE-2" value="" style="shape=partialRectangle;html=1;whiteSpace=wrap;collapsible=0;dropTarget=0;pointerEvents=0;fillColor=none;top=0;left=0;bottom=0;right=0;points=[[0,0.5],[1,0.5]];portConstraint=eastwest;" vertex="1" parent="4fN59mr1vvwU1dO_PUeE-1">
          <mxGeometry width="570" height="135" as="geometry" />
        </mxCell>
        <mxCell id="4fN59mr1vvwU1dO_PUeE-3" value="" style="shape=partialRectangle;html=1;whiteSpace=wrap;connectable=0;fillColor=none;top=0;left=0;bottom=0;right=0;overflow=hidden;" vertex="1" parent="4fN59mr1vvwU1dO_PUeE-2">
          <mxGeometry width="114" height="135" as="geometry" />
        </mxCell>
        <mxCell id="4fN59mr1vvwU1dO_PUeE-4" value="" style="shape=partialRectangle;html=1;whiteSpace=wrap;connectable=0;fillColor=none;top=0;left=0;bottom=0;right=0;overflow=hidden;" vertex="1" parent="4fN59mr1vvwU1dO_PUeE-2">
          <mxGeometry x="114" width="114" height="135" as="geometry" />
        </mxCell>
        <mxCell id="4fN59mr1vvwU1dO_PUeE-5" value="" style="shape=partialRectangle;html=1;whiteSpace=wrap;connectable=0;fillColor=none;top=0;left=0;bottom=0;right=0;overflow=hidden;" vertex="1" parent="4fN59mr1vvwU1dO_PUeE-2">
          <mxGeometry x="228" width="114" height="135" as="geometry" />
        </mxCell>
        <mxCell id="4fN59mr1vvwU1dO_PUeE-16" style="shape=partialRectangle;html=1;whiteSpace=wrap;connectable=0;fillColor=none;top=0;left=0;bottom=0;right=0;overflow=hidden;" vertex="1" parent="4fN59mr1vvwU1dO_PUeE-2">
          <mxGeometry x="342" width="114" height="135" as="geometry" />
        </mxCell>
        <mxCell id="4fN59mr1vvwU1dO_PUeE-14" style="shape=partialRectangle;html=1;whiteSpace=wrap;connectable=0;fillColor=none;top=0;left=0;bottom=0;right=0;overflow=hidden;" vertex="1" parent="4fN59mr1vvwU1dO_PUeE-2">
          <mxGeometry x="456" width="114" height="135" as="geometry" />
        </mxCell>
        <mxCell id="4fN59mr1vvwU1dO_PUeE-6" value="" style="shape=partialRectangle;html=1;whiteSpace=wrap;collapsible=0;dropTarget=0;pointerEvents=0;fillColor=none;top=0;left=0;bottom=0;right=0;points=[[0,0.5],[1,0.5]];portConstraint=eastwest;" vertex="1" parent="4fN59mr1vvwU1dO_PUeE-1">
          <mxGeometry y="135" width="570" height="135" as="geometry" />
        </mxCell>
        <mxCell id="4fN59mr1vvwU1dO_PUeE-7" value="" style="shape=partialRectangle;html=1;whiteSpace=wrap;connectable=0;fillColor=none;top=0;left=0;bottom=0;right=0;overflow=hidden;" vertex="1" parent="4fN59mr1vvwU1dO_PUeE-6">
          <mxGeometry width="114" height="135" as="geometry" />
        </mxCell>
        <mxCell id="4fN59mr1vvwU1dO_PUeE-8" value="" style="shape=partialRectangle;html=1;whiteSpace=wrap;connectable=0;fillColor=none;top=0;left=0;bottom=0;right=0;overflow=hidden;" vertex="1" parent="4fN59mr1vvwU1dO_PUeE-6">
          <mxGeometry x="114" width="114" height="135" as="geometry" />
        </mxCell>
        <mxCell id="4fN59mr1vvwU1dO_PUeE-9" value="" style="shape=partialRectangle;html=1;whiteSpace=wrap;connectable=0;fillColor=none;top=0;left=0;bottom=0;right=0;overflow=hidden;" vertex="1" parent="4fN59mr1vvwU1dO_PUeE-6">
          <mxGeometry x="228" width="114" height="135" as="geometry" />
        </mxCell>
        <mxCell id="4fN59mr1vvwU1dO_PUeE-17" style="shape=partialRectangle;html=1;whiteSpace=wrap;connectable=0;fillColor=none;top=0;left=0;bottom=0;right=0;overflow=hidden;" vertex="1" parent="4fN59mr1vvwU1dO_PUeE-6">
          <mxGeometry x="342" width="114" height="135" as="geometry" />
        </mxCell>
        <mxCell id="4fN59mr1vvwU1dO_PUeE-15" style="shape=partialRectangle;html=1;whiteSpace=wrap;connectable=0;fillColor=none;top=0;left=0;bottom=0;right=0;overflow=hidden;" vertex="1" parent="4fN59mr1vvwU1dO_PUeE-6">
          <mxGeometry x="456" width="114" height="135" as="geometry" />
        </mxCell>
        <mxCell id="4fN59mr1vvwU1dO_PUeE-18" value="No.〇〇　スタンプ獲得！" style="text;html=1;strokeColor=none;fillColor=none;align=left;verticalAlign=middle;whiteSpace=wrap;rounded=0;fontSize=46;fontColor=#000000;" vertex="1" parent="dw4w0KYpYsC4UQLAldl0-1">
          <mxGeometry x="817" y="1050" width="563" height="20" as="geometry" />
        </mxCell>
        <mxCell id="4fN59mr1vvwU1dO_PUeE-19" value="" style="html=1;verticalLabelPosition=bottom;align=center;labelBackgroundColor=#ffffff;verticalAlign=top;strokeWidth=2;shadow=0;dashed=0;shape=mxgraph.ios7.icons.star;fontSize=46;fontColor=#000000;" vertex="1" parent="dw4w0KYpYsC4UQLAldl0-1">
          <mxGeometry x="1052.5" y="1165" width="65" height="67" as="geometry" />
        </mxCell>
        <mxCell id="4fN59mr1vvwU1dO_PUeE-20" value="" style="html=1;verticalLabelPosition=bottom;align=center;labelBackgroundColor=#ffffff;verticalAlign=top;strokeWidth=2;shadow=0;dashed=0;shape=mxgraph.ios7.icons.star;fontSize=46;fontColor=#000000;" vertex="1" parent="dw4w0KYpYsC4UQLAldl0-1">
          <mxGeometry x="940" y="1300" width="65" height="67" as="geometry" />
        </mxCell>
        <mxCell id="4fN59mr1vvwU1dO_PUeE-21" value="" style="html=1;verticalLabelPosition=bottom;align=center;labelBackgroundColor=#ffffff;verticalAlign=top;strokeWidth=2;shadow=0;dashed=0;shape=mxgraph.ios7.icons.star;fontSize=46;fontColor=#000000;" vertex="1" parent="dw4w0KYpYsC4UQLAldl0-1">
          <mxGeometry x="1052.5" y="1300" width="65" height="67" as="geometry" />
        </mxCell>
        <mxCell id="4fN59mr1vvwU1dO_PUeE-22" value="" style="html=1;verticalLabelPosition=bottom;align=center;labelBackgroundColor=#ffffff;verticalAlign=top;strokeWidth=2;shadow=0;dashed=0;shape=mxgraph.ios7.icons.star;fontSize=46;fontColor=#000000;" vertex="1" parent="dw4w0KYpYsC4UQLAldl0-1">
          <mxGeometry x="1285" y="1165" width="65" height="67" as="geometry" />
        </mxCell>
        <mxCell id="4fN59mr1vvwU1dO_PUeE-23" value="" style="html=1;verticalLabelPosition=bottom;align=center;labelBackgroundColor=#ffffff;verticalAlign=top;strokeWidth=2;shadow=0;dashed=0;shape=mxgraph.ios7.icons.star;fontSize=46;fontColor=#000000;" vertex="1" parent="dw4w0KYpYsC4UQLAldl0-1">
          <mxGeometry x="1170" y="1300" width="65" height="67" as="geometry" />
        </mxCell>
      </root>
    </mxGraphModel>
  </diagram>
  <diagram name="No.5.2 スタンプラリーポイント導線" id="lBJ3HdYK5foKPVJkwrOt">
    <mxGraphModel dx="2920" dy="1897" grid="1" gridSize="10" guides="1" tooltips="1" connect="1" arrows="1" fold="1" page="1" pageScale="1" pageWidth="1100" pageHeight="850" background="#ffffff" math="0" shadow="0">
      <root>
        <mxCell id="cA6GIeNV389GKAMYPx0k-0" />
        <mxCell id="cA6GIeNV389GKAMYPx0k-1" parent="cA6GIeNV389GKAMYPx0k-0" />
        <mxCell id="cA6GIeNV389GKAMYPx0k-2" value="" style="rounded=1;whiteSpace=wrap;html=1;fontSize=30;" vertex="1" parent="cA6GIeNV389GKAMYPx0k-1">
          <mxGeometry x="655" y="330" width="890" height="1850" as="geometry" />
        </mxCell>
        <mxCell id="cA6GIeNV389GKAMYPx0k-3" value="" style="rounded=1;whiteSpace=wrap;html=1;" vertex="1" parent="cA6GIeNV389GKAMYPx0k-1">
          <mxGeometry x="685" y="360" width="828" height="1792" as="geometry" />
        </mxCell>
        <mxCell id="cA6GIeNV389GKAMYPx0k-4" value="" style="rounded=1;whiteSpace=wrap;html=1;fontSize=30;" vertex="1" parent="cA6GIeNV389GKAMYPx0k-1">
          <mxGeometry x="905" y="360" width="400" height="60" as="geometry" />
        </mxCell>
        <mxCell id="cA6GIeNV389GKAMYPx0k-5" value="" style="ellipse;whiteSpace=wrap;html=1;aspect=fixed;fontSize=30;" vertex="1" parent="cA6GIeNV389GKAMYPx0k-1">
          <mxGeometry x="1175" y="375" width="30" height="30" as="geometry" />
        </mxCell>
        <mxCell id="cA6GIeNV389GKAMYPx0k-6" value="" style="rounded=1;whiteSpace=wrap;html=1;fontSize=30;" vertex="1" parent="cA6GIeNV389GKAMYPx0k-1">
          <mxGeometry x="1005" y="380" width="130" height="20" as="geometry" />
        </mxCell>
        <mxCell id="cA6GIeNV389GKAMYPx0k-7" value="" style="line;strokeWidth=2;html=1;fontSize=19;fontColor=#E6E6E6;strokeColor=#CCCCCC;" vertex="1" parent="cA6GIeNV389GKAMYPx0k-1">
          <mxGeometry x="685" y="2002" width="825" height="10" as="geometry" />
        </mxCell>
        <mxCell id="cA6GIeNV389GKAMYPx0k-8" value="" style="html=1;verticalLabelPosition=bottom;align=center;labelBackgroundColor=#ffffff;verticalAlign=top;strokeWidth=2;shadow=0;dashed=0;shape=mxgraph.ios7.icons.user;fontSize=19;fontColor=#E6E6E6;" vertex="1" parent="cA6GIeNV389GKAMYPx0k-1">
          <mxGeometry x="1360" y="2030" width="65" height="65" as="geometry" />
        </mxCell>
        <mxCell id="cA6GIeNV389GKAMYPx0k-9" value="" style="html=1;verticalLabelPosition=bottom;align=center;labelBackgroundColor=#ffffff;verticalAlign=top;strokeWidth=2;shadow=0;dashed=0;shape=mxgraph.ios7.icons.home;fontSize=19;fontColor=#E6E6E6;" vertex="1" parent="cA6GIeNV389GKAMYPx0k-1">
          <mxGeometry x="770" y="2030" width="65" height="65" as="geometry" />
        </mxCell>
        <mxCell id="cA6GIeNV389GKAMYPx0k-10" value="" style="html=1;verticalLabelPosition=bottom;align=center;labelBackgroundColor=#ffffff;verticalAlign=top;strokeWidth=2;shadow=0;dashed=0;shape=mxgraph.ios7.icons.location_2;fontSize=19;fontColor=#E6E6E6;strokeColor=#CDA2BE;" vertex="1" parent="cA6GIeNV389GKAMYPx0k-1">
          <mxGeometry x="920" y="2030" width="65" height="65" as="geometry" />
        </mxCell>
        <mxCell id="cA6GIeNV389GKAMYPx0k-11" value="" style="html=1;verticalLabelPosition=bottom;align=center;labelBackgroundColor=#ffffff;verticalAlign=top;strokeWidth=2;shadow=0;dashed=0;shape=mxgraph.ios7.icons.folders_2;fontSize=19;fontColor=#E6E6E6;" vertex="1" parent="cA6GIeNV389GKAMYPx0k-1">
          <mxGeometry x="1220" y="2035" width="65" height="55" as="geometry" />
        </mxCell>
        <mxCell id="cA6GIeNV389GKAMYPx0k-12" value="" style="html=1;verticalLabelPosition=bottom;align=center;labelBackgroundColor=#ffffff;verticalAlign=top;strokeWidth=2;shadow=0;dashed=0;shape=mxgraph.ios7.icons.location;fontSize=19;fontColor=#E6E6E6;" vertex="1" parent="cA6GIeNV389GKAMYPx0k-1">
          <mxGeometry x="1065" y="2030" width="64" height="70" as="geometry" />
        </mxCell>
        <mxCell id="cA6GIeNV389GKAMYPx0k-13" value="ホーム" style="text;html=1;strokeColor=none;fillColor=none;align=center;verticalAlign=middle;whiteSpace=wrap;rounded=0;fontSize=19;" vertex="1" parent="cA6GIeNV389GKAMYPx0k-1">
          <mxGeometry x="742.5" y="2105" width="120" height="20" as="geometry" />
        </mxCell>
        <mxCell id="cA6GIeNV389GKAMYPx0k-14" value="スタンプラリー" style="text;html=1;strokeColor=none;fillColor=none;align=center;verticalAlign=middle;whiteSpace=wrap;rounded=0;fontSize=19;" vertex="1" parent="cA6GIeNV389GKAMYPx0k-1">
          <mxGeometry x="881.25" y="2105" width="142.5" height="20" as="geometry" />
        </mxCell>
        <mxCell id="cA6GIeNV389GKAMYPx0k-15" value="マップ作成" style="text;html=1;strokeColor=none;fillColor=none;align=center;verticalAlign=middle;whiteSpace=wrap;rounded=0;fontSize=19;" vertex="1" parent="cA6GIeNV389GKAMYPx0k-1">
          <mxGeometry x="1037" y="2105" width="120" height="20" as="geometry" />
        </mxCell>
        <mxCell id="cA6GIeNV389GKAMYPx0k-16" value="マップ一覧" style="text;html=1;strokeColor=none;fillColor=none;align=center;verticalAlign=middle;whiteSpace=wrap;rounded=0;fontSize=19;" vertex="1" parent="cA6GIeNV389GKAMYPx0k-1">
          <mxGeometry x="1192.5" y="2105" width="120" height="20" as="geometry" />
        </mxCell>
        <mxCell id="cA6GIeNV389GKAMYPx0k-17" value="ユーザー情報" style="text;html=1;strokeColor=none;fillColor=none;align=center;verticalAlign=middle;whiteSpace=wrap;rounded=0;fontSize=19;" vertex="1" parent="cA6GIeNV389GKAMYPx0k-1">
          <mxGeometry x="1332.5" y="2105" width="120" height="20" as="geometry" />
        </mxCell>
        <mxCell id="cA6GIeNV389GKAMYPx0k-18" value="スタンプラリー" style="text;html=1;strokeColor=none;fillColor=none;align=left;verticalAlign=middle;whiteSpace=wrap;rounded=0;fontSize=60;" vertex="1" parent="cA6GIeNV389GKAMYPx0k-1">
          <mxGeometry x="745" y="480" width="430" height="20" as="geometry" />
        </mxCell>
        <mxCell id="cA6GIeNV389GKAMYPx0k-19" value="" style="html=1;verticalLabelPosition=bottom;align=center;labelBackgroundColor=#ffffff;verticalAlign=top;strokeWidth=2;shadow=0;dashed=0;shape=mxgraph.ios7.icons.options;pointerEvents=1;fontSize=35;fontColor=#000000;" vertex="1" parent="cA6GIeNV389GKAMYPx0k-1">
          <mxGeometry x="1387.5" y="467.5" width="65" height="45" as="geometry" />
        </mxCell>
        <mxCell id="cA6GIeNV389GKAMYPx0k-20" value="" style="verticalLabelPosition=bottom;verticalAlign=top;html=1;shadow=0;dashed=0;strokeWidth=1;shape=mxgraph.ios.iBgMap;strokeColor=#18211b;strokeColor2=#008cff;fillColor2=#96D1FF;fontSize=35;fontColor=#000000;align=left;" vertex="1" parent="cA6GIeNV389GKAMYPx0k-1">
          <mxGeometry x="740" y="600" width="700" height="1270" as="geometry" />
        </mxCell>
        <mxCell id="cA6GIeNV389GKAMYPx0k-21" value="" style="verticalLabelPosition=top;html=1;shadow=0;dashed=0;verticalAlign=bottom;strokeWidth=1;shape=mxgraph.ios.iPin;fillColor2=#ffff00;fillColor3=#888800;strokeColor=#999900;fontSize=35;fontColor=#000000;align=left;" vertex="1" parent="cA6GIeNV389GKAMYPx0k-1">
          <mxGeometry x="1055" y="860" width="30" height="75" as="geometry" />
        </mxCell>
        <mxCell id="cA6GIeNV389GKAMYPx0k-22" value="" style="verticalLabelPosition=top;html=1;shadow=0;dashed=0;verticalAlign=bottom;strokeWidth=1;shape=mxgraph.ios.iPin;fillColor2=#ffff00;fillColor3=#888800;strokeColor=#999900;fontSize=35;fontColor=#000000;align=left;" vertex="1" parent="cA6GIeNV389GKAMYPx0k-1">
          <mxGeometry x="881.25" y="1090" width="30" height="75" as="geometry" />
        </mxCell>
        <mxCell id="cA6GIeNV389GKAMYPx0k-23" value="&lt;font style=&quot;font-size: 45px&quot;&gt;GET&lt;/font&gt;" style="text;html=1;strokeColor=#d6b656;fillColor=#fff2cc;align=center;verticalAlign=middle;whiteSpace=wrap;rounded=0;fontSize=35;" vertex="1" parent="cA6GIeNV389GKAMYPx0k-1">
          <mxGeometry x="720" y="1910" width="161.25" height="60" as="geometry" />
        </mxCell>
        <mxCell id="cA6GIeNV389GKAMYPx0k-24" value="&lt;font style=&quot;font-size: 45px&quot;&gt;4 / 10&lt;/font&gt;" style="text;html=1;strokeColor=none;fillColor=none;align=center;verticalAlign=middle;whiteSpace=wrap;rounded=0;fontSize=35;fontColor=#000000;" vertex="1" parent="cA6GIeNV389GKAMYPx0k-1">
          <mxGeometry x="1312.5" y="1900" width="140" height="70" as="geometry" />
        </mxCell>
        <mxCell id="jU3BwF1W2ustl17wktYx-0" value="メモ）&lt;br&gt;吹き出しは意外と難しいかも。。それにマップ外にピンがある場合に使いづらいか。&lt;br&gt;&lt;br&gt;オプション&lt;br&gt;↓&lt;br&gt;アコーディオンで選択&lt;br&gt;↓&lt;br&gt;マップ情報" style="text;html=1;strokeColor=none;fillColor=none;align=left;verticalAlign=middle;whiteSpace=wrap;rounded=0;fontSize=35;fontColor=#000000;" vertex="1" parent="cA6GIeNV389GKAMYPx0k-1">
          <mxGeometry x="1610" y="760" width="490" height="230" as="geometry" />
        </mxCell>
        <mxCell id="jU3BwF1W2ustl17wktYx-1" value="" style="strokeWidth=1;shadow=0;dashed=0;align=center;html=1;shape=mxgraph.mockup.containers.rrect;rSize=0;strokeColor=#666666;fontSize=46;fontColor=#000000;" vertex="1" parent="cA6GIeNV389GKAMYPx0k-1">
          <mxGeometry x="1291.25" y="535" width="202.5" height="400" as="geometry" />
        </mxCell>
        <mxCell id="jU3BwF1W2ustl17wktYx-2" value="スタンプカード" style="strokeColor=inherit;fillColor=inherit;gradientColor=inherit;strokeWidth=1;shadow=0;dashed=0;align=center;html=1;shape=mxgraph.mockup.containers.rrect;rSize=0;fontSize=26;fontColor=#666666;fontStyle=1;resizeWidth=1;" vertex="1" parent="jU3BwF1W2ustl17wktYx-1">
          <mxGeometry width="202.5" height="44" relative="1" as="geometry" />
        </mxCell>
        <mxCell id="jU3BwF1W2ustl17wktYx-3" value="ポイント 1" style="strokeColor=inherit;fillColor=inherit;gradientColor=inherit;strokeWidth=1;shadow=0;dashed=0;align=center;html=1;shape=mxgraph.mockup.containers.rrect;rSize=0;fontSize=26;fontColor=#666666;fontStyle=1;resizeWidth=1;" vertex="1" parent="jU3BwF1W2ustl17wktYx-1">
          <mxGeometry width="202.5" height="44" relative="1" as="geometry">
            <mxPoint y="45" as="offset" />
          </mxGeometry>
        </mxCell>
        <mxCell id="jU3BwF1W2ustl17wktYx-4" value="ポイント 2" style="strokeWidth=1;shadow=0;dashed=0;align=center;html=1;shape=mxgraph.mockup.containers.rrect;rSize=0;fontSize=26;fontColor=#ffffff;fontStyle=1;fillColor=#008cff;strokeColor=#008cff;resizeWidth=1;" vertex="1" parent="jU3BwF1W2ustl17wktYx-1">
          <mxGeometry width="202.5" height="44" relative="1" as="geometry">
            <mxPoint y="85" as="offset" />
          </mxGeometry>
        </mxCell>
        <mxCell id="jU3BwF1W2ustl17wktYx-5" value="閉じる" style="strokeColor=inherit;fillColor=inherit;gradientColor=inherit;strokeWidth=1;shadow=0;dashed=0;align=center;html=1;shape=mxgraph.mockup.containers.rrect;rSize=0;fontSize=26;fontColor=#666666;fontStyle=1;resizeWidth=1;" vertex="1" parent="jU3BwF1W2ustl17wktYx-1">
          <mxGeometry y="1" width="202.5" height="44" relative="1" as="geometry">
            <mxPoint y="-26" as="offset" />
          </mxGeometry>
        </mxCell>
      </root>
    </mxGraphModel>
  </diagram>
  <diagram name="No.5.3 スタンプラリーポイント説明" id="IZrCsm27SH-aVT1D4NGi">
    <mxGraphModel dx="3504" dy="2276" grid="1" gridSize="10" guides="1" tooltips="1" connect="1" arrows="1" fold="1" page="1" pageScale="1" pageWidth="1100" pageHeight="850" background="#ffffff" math="0" shadow="0">
      <root>
        <mxCell id="5QFZAN0UIWbYJ0_TFYr8-0" />
        <mxCell id="5QFZAN0UIWbYJ0_TFYr8-1" parent="5QFZAN0UIWbYJ0_TFYr8-0" />
        <mxCell id="5QFZAN0UIWbYJ0_TFYr8-2" value="" style="rounded=1;whiteSpace=wrap;html=1;fontSize=30;" vertex="1" parent="5QFZAN0UIWbYJ0_TFYr8-1">
          <mxGeometry x="655" y="330" width="890" height="1850" as="geometry" />
        </mxCell>
        <mxCell id="5QFZAN0UIWbYJ0_TFYr8-3" value="" style="rounded=1;whiteSpace=wrap;html=1;" vertex="1" parent="5QFZAN0UIWbYJ0_TFYr8-1">
          <mxGeometry x="685" y="360" width="828" height="1792" as="geometry" />
        </mxCell>
        <mxCell id="5QFZAN0UIWbYJ0_TFYr8-4" value="" style="rounded=1;whiteSpace=wrap;html=1;fontSize=30;" vertex="1" parent="5QFZAN0UIWbYJ0_TFYr8-1">
          <mxGeometry x="905" y="360" width="400" height="60" as="geometry" />
        </mxCell>
        <mxCell id="5QFZAN0UIWbYJ0_TFYr8-5" value="" style="ellipse;whiteSpace=wrap;html=1;aspect=fixed;fontSize=30;" vertex="1" parent="5QFZAN0UIWbYJ0_TFYr8-1">
          <mxGeometry x="1175" y="375" width="30" height="30" as="geometry" />
        </mxCell>
        <mxCell id="5QFZAN0UIWbYJ0_TFYr8-6" value="" style="rounded=1;whiteSpace=wrap;html=1;fontSize=30;" vertex="1" parent="5QFZAN0UIWbYJ0_TFYr8-1">
          <mxGeometry x="1005" y="380" width="130" height="20" as="geometry" />
        </mxCell>
        <mxCell id="5QFZAN0UIWbYJ0_TFYr8-7" value="" style="line;strokeWidth=2;html=1;fontSize=19;fontColor=#E6E6E6;strokeColor=#CCCCCC;" vertex="1" parent="5QFZAN0UIWbYJ0_TFYr8-1">
          <mxGeometry x="685" y="2002" width="825" height="10" as="geometry" />
        </mxCell>
        <mxCell id="5QFZAN0UIWbYJ0_TFYr8-8" value="" style="html=1;verticalLabelPosition=bottom;align=center;labelBackgroundColor=#ffffff;verticalAlign=top;strokeWidth=2;shadow=0;dashed=0;shape=mxgraph.ios7.icons.user;fontSize=19;fontColor=#E6E6E6;" vertex="1" parent="5QFZAN0UIWbYJ0_TFYr8-1">
          <mxGeometry x="1360" y="2030" width="65" height="65" as="geometry" />
        </mxCell>
        <mxCell id="5QFZAN0UIWbYJ0_TFYr8-9" value="" style="html=1;verticalLabelPosition=bottom;align=center;labelBackgroundColor=#ffffff;verticalAlign=top;strokeWidth=2;shadow=0;dashed=0;shape=mxgraph.ios7.icons.home;fontSize=19;fontColor=#E6E6E6;" vertex="1" parent="5QFZAN0UIWbYJ0_TFYr8-1">
          <mxGeometry x="770" y="2030" width="65" height="65" as="geometry" />
        </mxCell>
        <mxCell id="5QFZAN0UIWbYJ0_TFYr8-10" value="" style="html=1;verticalLabelPosition=bottom;align=center;labelBackgroundColor=#ffffff;verticalAlign=top;strokeWidth=2;shadow=0;dashed=0;shape=mxgraph.ios7.icons.location_2;fontSize=19;fontColor=#E6E6E6;strokeColor=#CDA2BE;" vertex="1" parent="5QFZAN0UIWbYJ0_TFYr8-1">
          <mxGeometry x="920" y="2030" width="65" height="65" as="geometry" />
        </mxCell>
        <mxCell id="5QFZAN0UIWbYJ0_TFYr8-11" value="" style="html=1;verticalLabelPosition=bottom;align=center;labelBackgroundColor=#ffffff;verticalAlign=top;strokeWidth=2;shadow=0;dashed=0;shape=mxgraph.ios7.icons.folders_2;fontSize=19;fontColor=#E6E6E6;" vertex="1" parent="5QFZAN0UIWbYJ0_TFYr8-1">
          <mxGeometry x="1220" y="2035" width="65" height="55" as="geometry" />
        </mxCell>
        <mxCell id="5QFZAN0UIWbYJ0_TFYr8-12" value="" style="html=1;verticalLabelPosition=bottom;align=center;labelBackgroundColor=#ffffff;verticalAlign=top;strokeWidth=2;shadow=0;dashed=0;shape=mxgraph.ios7.icons.location;fontSize=19;fontColor=#E6E6E6;" vertex="1" parent="5QFZAN0UIWbYJ0_TFYr8-1">
          <mxGeometry x="1065" y="2030" width="64" height="70" as="geometry" />
        </mxCell>
        <mxCell id="5QFZAN0UIWbYJ0_TFYr8-13" value="ホーム" style="text;html=1;strokeColor=none;fillColor=none;align=center;verticalAlign=middle;whiteSpace=wrap;rounded=0;fontSize=19;" vertex="1" parent="5QFZAN0UIWbYJ0_TFYr8-1">
          <mxGeometry x="742.5" y="2105" width="120" height="20" as="geometry" />
        </mxCell>
        <mxCell id="5QFZAN0UIWbYJ0_TFYr8-14" value="スタンプラリー" style="text;html=1;strokeColor=none;fillColor=none;align=center;verticalAlign=middle;whiteSpace=wrap;rounded=0;fontSize=19;" vertex="1" parent="5QFZAN0UIWbYJ0_TFYr8-1">
          <mxGeometry x="881.25" y="2105" width="142.5" height="20" as="geometry" />
        </mxCell>
        <mxCell id="5QFZAN0UIWbYJ0_TFYr8-15" value="マップ作成" style="text;html=1;strokeColor=none;fillColor=none;align=center;verticalAlign=middle;whiteSpace=wrap;rounded=0;fontSize=19;" vertex="1" parent="5QFZAN0UIWbYJ0_TFYr8-1">
          <mxGeometry x="1037" y="2105" width="120" height="20" as="geometry" />
        </mxCell>
        <mxCell id="5QFZAN0UIWbYJ0_TFYr8-16" value="マップ一覧" style="text;html=1;strokeColor=none;fillColor=none;align=center;verticalAlign=middle;whiteSpace=wrap;rounded=0;fontSize=19;" vertex="1" parent="5QFZAN0UIWbYJ0_TFYr8-1">
          <mxGeometry x="1192.5" y="2105" width="120" height="20" as="geometry" />
        </mxCell>
        <mxCell id="5QFZAN0UIWbYJ0_TFYr8-17" value="ユーザー情報" style="text;html=1;strokeColor=none;fillColor=none;align=center;verticalAlign=middle;whiteSpace=wrap;rounded=0;fontSize=19;" vertex="1" parent="5QFZAN0UIWbYJ0_TFYr8-1">
          <mxGeometry x="1332.5" y="2105" width="120" height="20" as="geometry" />
        </mxCell>
        <mxCell id="5QFZAN0UIWbYJ0_TFYr8-18" value="スタンプラリー" style="text;html=1;strokeColor=none;fillColor=none;align=left;verticalAlign=middle;whiteSpace=wrap;rounded=0;fontSize=60;" vertex="1" parent="5QFZAN0UIWbYJ0_TFYr8-1">
          <mxGeometry x="745" y="480" width="430" height="20" as="geometry" />
        </mxCell>
        <mxCell id="5QFZAN0UIWbYJ0_TFYr8-19" value="" style="html=1;verticalLabelPosition=bottom;align=center;labelBackgroundColor=#ffffff;verticalAlign=top;strokeWidth=2;shadow=0;dashed=0;shape=mxgraph.ios7.icons.options;pointerEvents=1;fontSize=35;fontColor=#000000;" vertex="1" parent="5QFZAN0UIWbYJ0_TFYr8-1">
          <mxGeometry x="1387.5" y="467.5" width="65" height="45" as="geometry" />
        </mxCell>
        <mxCell id="5QFZAN0UIWbYJ0_TFYr8-20" value="" style="verticalLabelPosition=bottom;verticalAlign=top;html=1;shadow=0;dashed=0;strokeWidth=1;shape=mxgraph.ios.iBgMap;strokeColor=#18211b;strokeColor2=#008cff;fillColor2=#96D1FF;fontSize=35;fontColor=#000000;align=left;" vertex="1" parent="5QFZAN0UIWbYJ0_TFYr8-1">
          <mxGeometry x="740" y="600" width="700" height="1270" as="geometry" />
        </mxCell>
        <mxCell id="5QFZAN0UIWbYJ0_TFYr8-21" value="" style="verticalLabelPosition=top;html=1;shadow=0;dashed=0;verticalAlign=bottom;strokeWidth=1;shape=mxgraph.ios.iPin;fillColor2=#ffff00;fillColor3=#888800;strokeColor=#999900;fontSize=35;fontColor=#000000;align=left;" vertex="1" parent="5QFZAN0UIWbYJ0_TFYr8-1">
          <mxGeometry x="1055" y="860" width="30" height="75" as="geometry" />
        </mxCell>
        <mxCell id="5QFZAN0UIWbYJ0_TFYr8-22" value="" style="verticalLabelPosition=top;html=1;shadow=0;dashed=0;verticalAlign=bottom;strokeWidth=1;shape=mxgraph.ios.iPin;fillColor2=#ffff00;fillColor3=#888800;strokeColor=#999900;fontSize=35;fontColor=#000000;align=left;" vertex="1" parent="5QFZAN0UIWbYJ0_TFYr8-1">
          <mxGeometry x="881.25" y="1090" width="30" height="75" as="geometry" />
        </mxCell>
        <mxCell id="5QFZAN0UIWbYJ0_TFYr8-23" value="&lt;font style=&quot;font-size: 45px&quot;&gt;GET&lt;/font&gt;" style="text;html=1;strokeColor=#d6b656;fillColor=#fff2cc;align=center;verticalAlign=middle;whiteSpace=wrap;rounded=0;fontSize=35;" vertex="1" parent="5QFZAN0UIWbYJ0_TFYr8-1">
          <mxGeometry x="720" y="1910" width="161.25" height="60" as="geometry" />
        </mxCell>
        <mxCell id="5QFZAN0UIWbYJ0_TFYr8-24" value="&lt;font style=&quot;font-size: 45px&quot;&gt;4 / 10&lt;/font&gt;" style="text;html=1;strokeColor=none;fillColor=none;align=center;verticalAlign=middle;whiteSpace=wrap;rounded=0;fontSize=35;fontColor=#000000;" vertex="1" parent="5QFZAN0UIWbYJ0_TFYr8-1">
          <mxGeometry x="1312.5" y="1900" width="140" height="70" as="geometry" />
        </mxCell>
        <mxCell id="5QFZAN0UIWbYJ0_TFYr8-26" value="" style="strokeWidth=1;shadow=0;dashed=0;align=center;html=1;shape=mxgraph.mockup.containers.rrect;rSize=0;strokeColor=#666666;fontSize=46;fontColor=#000000;" vertex="1" parent="5QFZAN0UIWbYJ0_TFYr8-1">
          <mxGeometry x="1291.25" y="535" width="202.5" height="400" as="geometry" />
        </mxCell>
        <mxCell id="5QFZAN0UIWbYJ0_TFYr8-27" value="スタンプカード" style="strokeColor=inherit;fillColor=inherit;gradientColor=inherit;strokeWidth=1;shadow=0;dashed=0;align=center;html=1;shape=mxgraph.mockup.containers.rrect;rSize=0;fontSize=26;fontColor=#666666;fontStyle=1;resizeWidth=1;" vertex="1" parent="5QFZAN0UIWbYJ0_TFYr8-26">
          <mxGeometry width="202.5" height="44" relative="1" as="geometry" />
        </mxCell>
        <mxCell id="5QFZAN0UIWbYJ0_TFYr8-28" value="ポイント 1" style="strokeColor=inherit;fillColor=inherit;gradientColor=inherit;strokeWidth=1;shadow=0;dashed=0;align=center;html=1;shape=mxgraph.mockup.containers.rrect;rSize=0;fontSize=26;fontColor=#666666;fontStyle=1;resizeWidth=1;" vertex="1" parent="5QFZAN0UIWbYJ0_TFYr8-26">
          <mxGeometry width="202.5" height="44" relative="1" as="geometry">
            <mxPoint y="45" as="offset" />
          </mxGeometry>
        </mxCell>
        <mxCell id="5QFZAN0UIWbYJ0_TFYr8-29" value="ポイント 2" style="strokeWidth=1;shadow=0;dashed=0;align=center;html=1;shape=mxgraph.mockup.containers.rrect;rSize=0;fontSize=26;fontColor=#ffffff;fontStyle=1;fillColor=#008cff;strokeColor=#008cff;resizeWidth=1;" vertex="1" parent="5QFZAN0UIWbYJ0_TFYr8-26">
          <mxGeometry width="202.5" height="44" relative="1" as="geometry">
            <mxPoint y="85" as="offset" />
          </mxGeometry>
        </mxCell>
        <mxCell id="5QFZAN0UIWbYJ0_TFYr8-30" value="閉じる" style="strokeColor=inherit;fillColor=inherit;gradientColor=inherit;strokeWidth=1;shadow=0;dashed=0;align=center;html=1;shape=mxgraph.mockup.containers.rrect;rSize=0;fontSize=26;fontColor=#666666;fontStyle=1;resizeWidth=1;" vertex="1" parent="5QFZAN0UIWbYJ0_TFYr8-26">
          <mxGeometry y="1" width="202.5" height="44" relative="1" as="geometry">
            <mxPoint y="-26" as="offset" />
          </mxGeometry>
        </mxCell>
        <mxCell id="5QFZAN0UIWbYJ0_TFYr8-31" value="&lt;div style=&quot;font-size: 30px&quot;&gt;&lt;font style=&quot;font-size: 30px&quot;&gt;&lt;br&gt;&lt;/font&gt;&lt;/div&gt;&lt;div style=&quot;font-size: 30px&quot;&gt;&lt;font style=&quot;font-size: 30px&quot;&gt;&amp;nbsp;ポイント2は.....&lt;/font&gt;&lt;/div&gt;" style="strokeWidth=1;shadow=0;dashed=0;align=left;html=1;shape=mxgraph.mockup.containers.rrect;rSize=0;strokeColor=#666666;fontSize=17;verticalAlign=top;whiteSpace=wrap;fillColor=#ffffff;spacingTop=32;" vertex="1" parent="5QFZAN0UIWbYJ0_TFYr8-1">
          <mxGeometry x="850" y="1010" width="520" height="330" as="geometry" />
        </mxCell>
        <mxCell id="5QFZAN0UIWbYJ0_TFYr8-32" value="&lt;font style=&quot;font-size: 35px&quot;&gt;ポイント2&lt;/font&gt;" style="strokeWidth=1;shadow=0;dashed=0;align=center;html=1;shape=mxgraph.mockup.containers.rrect;rSize=0;fontSize=17;strokeColor=#666666;align=left;spacingLeft=8;fillColor=#ffffff;resizeWidth=1;" vertex="1" parent="5QFZAN0UIWbYJ0_TFYr8-31">
          <mxGeometry width="520" height="60" relative="1" as="geometry" />
        </mxCell>
        <mxCell id="5QFZAN0UIWbYJ0_TFYr8-34" value="&lt;font style=&quot;font-size: 26px&quot;&gt;OK&lt;/font&gt;" style="strokeWidth=1;shadow=0;dashed=0;align=center;html=1;shape=mxgraph.mockup.containers.rrect;rSize=0;fontSize=16;fontColor=#666666;strokeColor=#c4c4c4;resizable=0;whiteSpace=wrap;fillColor=#ffffff;" vertex="1" parent="5QFZAN0UIWbYJ0_TFYr8-31">
          <mxGeometry x="0.5" y="1" width="120" height="25" relative="1" as="geometry">
            <mxPoint x="-60" y="-50" as="offset" />
          </mxGeometry>
        </mxCell>
      </root>
    </mxGraphModel>
  </diagram>
  <diagram name="No.6 マップ作成" id="cBTK8-WRpR7gDMK1Cu9m">
    <mxGraphModel dx="3504" dy="2276" grid="1" gridSize="10" guides="1" tooltips="1" connect="1" arrows="1" fold="1" page="1" pageScale="1" pageWidth="1100" pageHeight="850" background="#ffffff" math="0" shadow="0">
      <root>
        <mxCell id="pn79YG_Yw0I4-5GKAEsc-0" />
        <mxCell id="pn79YG_Yw0I4-5GKAEsc-1" parent="pn79YG_Yw0I4-5GKAEsc-0" />
        <mxCell id="pn79YG_Yw0I4-5GKAEsc-2" value="" style="rounded=1;whiteSpace=wrap;html=1;fontSize=30;" vertex="1" parent="pn79YG_Yw0I4-5GKAEsc-1">
          <mxGeometry x="655" y="330" width="890" height="1850" as="geometry" />
        </mxCell>
        <mxCell id="pn79YG_Yw0I4-5GKAEsc-3" value="" style="rounded=1;whiteSpace=wrap;html=1;" vertex="1" parent="pn79YG_Yw0I4-5GKAEsc-1">
          <mxGeometry x="685" y="360" width="828" height="1792" as="geometry" />
        </mxCell>
        <mxCell id="pn79YG_Yw0I4-5GKAEsc-4" value="" style="rounded=1;whiteSpace=wrap;html=1;fontSize=30;" vertex="1" parent="pn79YG_Yw0I4-5GKAEsc-1">
          <mxGeometry x="905" y="360" width="400" height="60" as="geometry" />
        </mxCell>
        <mxCell id="pn79YG_Yw0I4-5GKAEsc-5" value="" style="ellipse;whiteSpace=wrap;html=1;aspect=fixed;fontSize=30;" vertex="1" parent="pn79YG_Yw0I4-5GKAEsc-1">
          <mxGeometry x="1175" y="375" width="30" height="30" as="geometry" />
        </mxCell>
        <mxCell id="pn79YG_Yw0I4-5GKAEsc-6" value="" style="rounded=1;whiteSpace=wrap;html=1;fontSize=30;" vertex="1" parent="pn79YG_Yw0I4-5GKAEsc-1">
          <mxGeometry x="1005" y="380" width="130" height="20" as="geometry" />
        </mxCell>
        <mxCell id="pn79YG_Yw0I4-5GKAEsc-7" value="" style="line;strokeWidth=2;html=1;fontSize=19;fontColor=#E6E6E6;strokeColor=#CCCCCC;" vertex="1" parent="pn79YG_Yw0I4-5GKAEsc-1">
          <mxGeometry x="685" y="2002" width="825" height="10" as="geometry" />
        </mxCell>
        <mxCell id="pn79YG_Yw0I4-5GKAEsc-8" value="" style="html=1;verticalLabelPosition=bottom;align=center;labelBackgroundColor=#ffffff;verticalAlign=top;strokeWidth=2;shadow=0;dashed=0;shape=mxgraph.ios7.icons.user;fontSize=19;fontColor=#E6E6E6;" vertex="1" parent="pn79YG_Yw0I4-5GKAEsc-1">
          <mxGeometry x="1360" y="2030" width="65" height="65" as="geometry" />
        </mxCell>
        <mxCell id="pn79YG_Yw0I4-5GKAEsc-9" value="" style="html=1;verticalLabelPosition=bottom;align=center;labelBackgroundColor=#ffffff;verticalAlign=top;strokeWidth=2;shadow=0;dashed=0;shape=mxgraph.ios7.icons.home;fontSize=19;fontColor=#E6E6E6;" vertex="1" parent="pn79YG_Yw0I4-5GKAEsc-1">
          <mxGeometry x="770" y="2030" width="65" height="65" as="geometry" />
        </mxCell>
        <mxCell id="pn79YG_Yw0I4-5GKAEsc-10" value="" style="html=1;verticalLabelPosition=bottom;align=center;labelBackgroundColor=#ffffff;verticalAlign=top;strokeWidth=2;shadow=0;dashed=0;shape=mxgraph.ios7.icons.location_2;fontSize=19;fontColor=#E6E6E6;" vertex="1" parent="pn79YG_Yw0I4-5GKAEsc-1">
          <mxGeometry x="920" y="2030" width="65" height="65" as="geometry" />
        </mxCell>
        <mxCell id="pn79YG_Yw0I4-5GKAEsc-11" value="" style="html=1;verticalLabelPosition=bottom;align=center;labelBackgroundColor=#ffffff;verticalAlign=top;strokeWidth=2;shadow=0;dashed=0;shape=mxgraph.ios7.icons.folders_2;fontSize=19;fontColor=#E6E6E6;" vertex="1" parent="pn79YG_Yw0I4-5GKAEsc-1">
          <mxGeometry x="1220" y="2035" width="65" height="55" as="geometry" />
        </mxCell>
        <mxCell id="pn79YG_Yw0I4-5GKAEsc-12" value="" style="html=1;verticalLabelPosition=bottom;align=center;labelBackgroundColor=#ffffff;verticalAlign=top;strokeWidth=2;shadow=0;dashed=0;shape=mxgraph.ios7.icons.location;fontSize=19;fontColor=#E6E6E6;strokeColor=#CDA2BE;" vertex="1" parent="pn79YG_Yw0I4-5GKAEsc-1">
          <mxGeometry x="1065" y="2030" width="64" height="70" as="geometry" />
        </mxCell>
        <mxCell id="pn79YG_Yw0I4-5GKAEsc-13" value="ホーム" style="text;html=1;strokeColor=none;fillColor=none;align=center;verticalAlign=middle;whiteSpace=wrap;rounded=0;fontSize=19;" vertex="1" parent="pn79YG_Yw0I4-5GKAEsc-1">
          <mxGeometry x="742.5" y="2105" width="120" height="20" as="geometry" />
        </mxCell>
        <mxCell id="pn79YG_Yw0I4-5GKAEsc-14" value="スタンプラリー" style="text;html=1;strokeColor=none;fillColor=none;align=center;verticalAlign=middle;whiteSpace=wrap;rounded=0;fontSize=19;" vertex="1" parent="pn79YG_Yw0I4-5GKAEsc-1">
          <mxGeometry x="881.25" y="2105" width="142.5" height="20" as="geometry" />
        </mxCell>
        <mxCell id="pn79YG_Yw0I4-5GKAEsc-15" value="マップ作成" style="text;html=1;strokeColor=none;fillColor=none;align=center;verticalAlign=middle;whiteSpace=wrap;rounded=0;fontSize=19;" vertex="1" parent="pn79YG_Yw0I4-5GKAEsc-1">
          <mxGeometry x="1037" y="2105" width="120" height="20" as="geometry" />
        </mxCell>
        <mxCell id="pn79YG_Yw0I4-5GKAEsc-16" value="マップ一覧" style="text;html=1;strokeColor=none;fillColor=none;align=center;verticalAlign=middle;whiteSpace=wrap;rounded=0;fontSize=19;" vertex="1" parent="pn79YG_Yw0I4-5GKAEsc-1">
          <mxGeometry x="1192.5" y="2105" width="120" height="20" as="geometry" />
        </mxCell>
        <mxCell id="pn79YG_Yw0I4-5GKAEsc-17" value="ユーザー情報" style="text;html=1;strokeColor=none;fillColor=none;align=center;verticalAlign=middle;whiteSpace=wrap;rounded=0;fontSize=19;" vertex="1" parent="pn79YG_Yw0I4-5GKAEsc-1">
          <mxGeometry x="1332.5" y="2105" width="120" height="20" as="geometry" />
        </mxCell>
        <mxCell id="pn79YG_Yw0I4-5GKAEsc-18" value="マップ作成" style="text;html=1;strokeColor=none;fillColor=none;align=left;verticalAlign=middle;whiteSpace=wrap;rounded=0;fontSize=60;" vertex="1" parent="pn79YG_Yw0I4-5GKAEsc-1">
          <mxGeometry x="745" y="480" width="430" height="20" as="geometry" />
        </mxCell>
        <mxCell id="pn79YG_Yw0I4-5GKAEsc-19" value="" style="html=1;verticalLabelPosition=bottom;align=center;labelBackgroundColor=#ffffff;verticalAlign=top;strokeWidth=2;shadow=0;dashed=0;shape=mxgraph.ios7.icons.options;pointerEvents=1;fontSize=35;fontColor=#000000;" vertex="1" parent="pn79YG_Yw0I4-5GKAEsc-1">
          <mxGeometry x="1387.5" y="467.5" width="65" height="45" as="geometry" />
        </mxCell>
        <mxCell id="pn79YG_Yw0I4-5GKAEsc-20" value="" style="verticalLabelPosition=bottom;verticalAlign=top;html=1;shadow=0;dashed=0;strokeWidth=1;shape=mxgraph.ios.iBgMap;strokeColor=#18211b;strokeColor2=#008cff;fillColor2=#96D1FF;fontSize=35;fontColor=#000000;align=left;" vertex="1" parent="pn79YG_Yw0I4-5GKAEsc-1">
          <mxGeometry x="740" y="600" width="700" height="1270" as="geometry" />
        </mxCell>
        <mxCell id="pn79YG_Yw0I4-5GKAEsc-21" value="" style="verticalLabelPosition=top;html=1;shadow=0;dashed=0;verticalAlign=bottom;strokeWidth=1;shape=mxgraph.ios.iPin;fillColor2=#ffff00;fillColor3=#888800;strokeColor=#999900;fontSize=35;fontColor=#000000;align=left;" vertex="1" parent="pn79YG_Yw0I4-5GKAEsc-1">
          <mxGeometry x="1055" y="860" width="30" height="75" as="geometry" />
        </mxCell>
        <mxCell id="pn79YG_Yw0I4-5GKAEsc-22" value="" style="verticalLabelPosition=top;html=1;shadow=0;dashed=0;verticalAlign=bottom;strokeWidth=1;shape=mxgraph.ios.iPin;fillColor2=#ffff00;fillColor3=#888800;strokeColor=#999900;fontSize=35;fontColor=#000000;align=left;" vertex="1" parent="pn79YG_Yw0I4-5GKAEsc-1">
          <mxGeometry x="881.25" y="1090" width="30" height="75" as="geometry" />
        </mxCell>
        <mxCell id="pn79YG_Yw0I4-5GKAEsc-23" value="&lt;font style=&quot;font-size: 45px&quot;&gt;SAVE&lt;/font&gt;" style="text;html=1;strokeColor=#d6b656;fillColor=#fff2cc;align=center;verticalAlign=middle;whiteSpace=wrap;rounded=0;fontSize=35;" vertex="1" parent="pn79YG_Yw0I4-5GKAEsc-1">
          <mxGeometry x="720" y="1910" width="161.25" height="60" as="geometry" />
        </mxCell>
        <mxCell id="pn79YG_Yw0I4-5GKAEsc-24" value="&lt;font style=&quot;font-size: 45px&quot;&gt;4 / 10&lt;/font&gt;" style="text;html=1;strokeColor=none;fillColor=none;align=center;verticalAlign=middle;whiteSpace=wrap;rounded=0;fontSize=35;fontColor=#000000;" vertex="1" parent="pn79YG_Yw0I4-5GKAEsc-1">
          <mxGeometry x="1312.5" y="1900" width="140" height="70" as="geometry" />
        </mxCell>
      </root>
    </mxGraphModel>
  </diagram>
</mxfile>
